<mxfile host="app.diagrams.net" modified="2023-09-12T23:10:34.947Z" agent="Mozilla/5.0 (Windows NT 10.0; Win64; x64) AppleWebKit/537.36 (KHTML, like Gecko) Chrome/116.0.0.0 Safari/537.36" etag="ZU9JAUwZl9sEOPICKnka" version="21.6.9" type="google">
  <diagram name="PÃ¡gina-1" id="u5kTwWAFhO37O23Hnrsi">
    <mxGraphModel dx="2933" dy="1613" grid="1" gridSize="10" guides="1" tooltips="1" connect="1" arrows="1" fold="1" page="1" pageScale="1" pageWidth="1169" pageHeight="827" math="0" shadow="0">
      <root>
        <mxCell id="0" />
        <mxCell id="1" parent="0" />
        <mxCell id="1fSh-lm8JhJzwwV4zj-t-10" value="" style="edgeStyle=orthogonalEdgeStyle;rounded=0;orthogonalLoop=1;jettySize=auto;html=1;noEdgeStyle=1;orthogonal=1;" edge="1" parent="1" source="1fSh-lm8JhJzwwV4zj-t-1" target="1fSh-lm8JhJzwwV4zj-t-9">
          <mxGeometry relative="1" as="geometry">
            <Array as="points">
              <mxPoint x="122" y="415" />
              <mxPoint x="198" y="415" />
            </Array>
          </mxGeometry>
        </mxCell>
        <mxCell id="1fSh-lm8JhJzwwV4zj-t-1" value="INICIO" style="ellipse;whiteSpace=wrap;html=1;" vertex="1" parent="1">
          <mxGeometry x="32.5" y="370" width="90" height="90" as="geometry" />
        </mxCell>
        <mxCell id="1fSh-lm8JhJzwwV4zj-t-2" value="" style="shape=table;startSize=0;container=1;collapsible=0;childLayout=tableLayout;swimlaneLine=1;strokeWidth=1;" vertex="1" parent="1">
          <mxGeometry x="30" y="300" width="95" height="60" as="geometry" />
        </mxCell>
        <mxCell id="1fSh-lm8JhJzwwV4zj-t-3" value="" style="shape=tableRow;horizontal=0;startSize=0;swimlaneHead=0;swimlaneBody=0;strokeColor=inherit;top=0;left=0;bottom=0;right=0;collapsible=0;dropTarget=0;fillColor=none;points=[[0,0.5],[1,0.5]];portConstraint=eastwest;" vertex="1" parent="1fSh-lm8JhJzwwV4zj-t-2">
          <mxGeometry width="95" height="30" as="geometry" />
        </mxCell>
        <mxCell id="1fSh-lm8JhJzwwV4zj-t-4" value="0" style="shape=partialRectangle;html=1;whiteSpace=wrap;connectable=0;strokeColor=inherit;overflow=hidden;fillColor=none;top=0;left=0;bottom=0;right=0;pointerEvents=1;" vertex="1" parent="1fSh-lm8JhJzwwV4zj-t-3">
          <mxGeometry width="48" height="30" as="geometry">
            <mxRectangle width="48" height="30" as="alternateBounds" />
          </mxGeometry>
        </mxCell>
        <mxCell id="1fSh-lm8JhJzwwV4zj-t-5" value="0" style="shape=partialRectangle;html=1;whiteSpace=wrap;connectable=0;strokeColor=inherit;overflow=hidden;fillColor=none;top=0;left=0;bottom=0;right=0;pointerEvents=1;" vertex="1" parent="1fSh-lm8JhJzwwV4zj-t-3">
          <mxGeometry x="48" width="47" height="30" as="geometry">
            <mxRectangle width="47" height="30" as="alternateBounds" />
          </mxGeometry>
        </mxCell>
        <mxCell id="1fSh-lm8JhJzwwV4zj-t-6" value="" style="shape=tableRow;horizontal=0;startSize=0;swimlaneHead=0;swimlaneBody=0;strokeColor=inherit;top=0;left=0;bottom=0;right=0;collapsible=0;dropTarget=0;fillColor=none;points=[[0,0.5],[1,0.5]];portConstraint=eastwest;" vertex="1" parent="1fSh-lm8JhJzwwV4zj-t-2">
          <mxGeometry y="30" width="95" height="30" as="geometry" />
        </mxCell>
        <mxCell id="1fSh-lm8JhJzwwV4zj-t-7" value="0" style="shape=partialRectangle;html=1;whiteSpace=wrap;connectable=0;strokeColor=inherit;overflow=hidden;fillColor=none;top=0;left=0;bottom=0;right=0;pointerEvents=1;" vertex="1" parent="1fSh-lm8JhJzwwV4zj-t-6">
          <mxGeometry width="48" height="30" as="geometry">
            <mxRectangle width="48" height="30" as="alternateBounds" />
          </mxGeometry>
        </mxCell>
        <mxCell id="1fSh-lm8JhJzwwV4zj-t-8" value="0" style="shape=partialRectangle;html=1;whiteSpace=wrap;connectable=0;strokeColor=inherit;overflow=hidden;fillColor=none;top=0;left=0;bottom=0;right=0;pointerEvents=1;" vertex="1" parent="1fSh-lm8JhJzwwV4zj-t-6">
          <mxGeometry x="48" width="47" height="30" as="geometry">
            <mxRectangle width="47" height="30" as="alternateBounds" />
          </mxGeometry>
        </mxCell>
        <mxCell id="1fSh-lm8JhJzwwV4zj-t-12" value="" style="edgeStyle=orthogonalEdgeStyle;rounded=0;orthogonalLoop=1;jettySize=auto;html=1;noEdgeStyle=1;orthogonal=1;" edge="1" parent="1" source="1fSh-lm8JhJzwwV4zj-t-9" target="1fSh-lm8JhJzwwV4zj-t-11">
          <mxGeometry relative="1" as="geometry">
            <Array as="points">
              <mxPoint x="302" y="415" />
              <mxPoint x="378" y="415" />
            </Array>
          </mxGeometry>
        </mxCell>
        <mxCell id="1fSh-lm8JhJzwwV4zj-t-9" value="&lt;div&gt;Entrevista con el Estado&lt;/div&gt;&lt;div&gt;0.5&lt;/div&gt;" style="ellipse;whiteSpace=wrap;html=1;fillColor=#f8cecc;strokeColor=#b85450;" vertex="1" parent="1">
          <mxGeometry x="210" y="375" width="80" height="80" as="geometry" />
        </mxCell>
        <mxCell id="1fSh-lm8JhJzwwV4zj-t-14" value="" style="edgeStyle=orthogonalEdgeStyle;rounded=0;orthogonalLoop=1;jettySize=auto;html=1;noEdgeStyle=1;orthogonal=1;" edge="1" parent="1" source="1fSh-lm8JhJzwwV4zj-t-11" target="1fSh-lm8JhJzwwV4zj-t-13">
          <mxGeometry relative="1" as="geometry">
            <Array as="points">
              <mxPoint x="482" y="385.8333333333333" />
              <mxPoint x="558" y="140" />
            </Array>
          </mxGeometry>
        </mxCell>
        <mxCell id="1fSh-lm8JhJzwwV4zj-t-18" value="" style="edgeStyle=orthogonalEdgeStyle;rounded=0;orthogonalLoop=1;jettySize=auto;html=1;noEdgeStyle=1;orthogonal=1;" edge="1" parent="1" source="1fSh-lm8JhJzwwV4zj-t-11" target="1fSh-lm8JhJzwwV4zj-t-17">
          <mxGeometry relative="1" as="geometry">
            <Array as="points">
              <mxPoint x="484" y="397.5" />
              <mxPoint x="558" y="250" />
            </Array>
          </mxGeometry>
        </mxCell>
        <mxCell id="1fSh-lm8JhJzwwV4zj-t-20" value="" style="edgeStyle=orthogonalEdgeStyle;rounded=0;orthogonalLoop=1;jettySize=auto;html=1;noEdgeStyle=1;orthogonal=1;" edge="1" parent="1" source="1fSh-lm8JhJzwwV4zj-t-11" target="1fSh-lm8JhJzwwV4zj-t-19">
          <mxGeometry relative="1" as="geometry">
            <Array as="points">
              <mxPoint x="486" y="409.1666666666667" />
              <mxPoint x="558" y="360" />
            </Array>
          </mxGeometry>
        </mxCell>
        <mxCell id="1fSh-lm8JhJzwwV4zj-t-22" value="" style="edgeStyle=orthogonalEdgeStyle;rounded=0;orthogonalLoop=1;jettySize=auto;html=1;noEdgeStyle=1;orthogonal=1;" edge="1" parent="1" source="1fSh-lm8JhJzwwV4zj-t-11" target="1fSh-lm8JhJzwwV4zj-t-21">
          <mxGeometry relative="1" as="geometry">
            <Array as="points">
              <mxPoint x="486" y="420.83333333333337" />
              <mxPoint x="558" y="470" />
            </Array>
          </mxGeometry>
        </mxCell>
        <mxCell id="1fSh-lm8JhJzwwV4zj-t-24" value="" style="edgeStyle=orthogonalEdgeStyle;rounded=0;orthogonalLoop=1;jettySize=auto;html=1;noEdgeStyle=1;orthogonal=1;" edge="1" parent="1" source="1fSh-lm8JhJzwwV4zj-t-11" target="1fSh-lm8JhJzwwV4zj-t-23">
          <mxGeometry relative="1" as="geometry">
            <Array as="points">
              <mxPoint x="484" y="432.50000000000006" />
              <mxPoint x="558" y="580" />
            </Array>
          </mxGeometry>
        </mxCell>
        <mxCell id="1fSh-lm8JhJzwwV4zj-t-26" value="" style="edgeStyle=orthogonalEdgeStyle;rounded=0;orthogonalLoop=1;jettySize=auto;html=1;noEdgeStyle=1;orthogonal=1;" edge="1" parent="1" source="1fSh-lm8JhJzwwV4zj-t-11" target="1fSh-lm8JhJzwwV4zj-t-25">
          <mxGeometry relative="1" as="geometry">
            <Array as="points">
              <mxPoint x="482" y="444.16666666666674" />
              <mxPoint x="558" y="690" />
            </Array>
          </mxGeometry>
        </mxCell>
        <mxCell id="1fSh-lm8JhJzwwV4zj-t-11" value="Encuesta a los encargados de los votos&lt;br&gt;0.5" style="ellipse;whiteSpace=wrap;html=1;fillColor=#f8cecc;strokeColor=#b85450;" vertex="1" parent="1">
          <mxGeometry x="390" y="375" width="80" height="80" as="geometry" />
        </mxCell>
        <mxCell id="1fSh-lm8JhJzwwV4zj-t-16" value="" style="edgeStyle=orthogonalEdgeStyle;rounded=0;orthogonalLoop=1;jettySize=auto;html=1;noEdgeStyle=1;orthogonal=1;" edge="1" parent="1" source="1fSh-lm8JhJzwwV4zj-t-13" target="1fSh-lm8JhJzwwV4zj-t-15">
          <mxGeometry relative="1" as="geometry">
            <Array as="points">
              <mxPoint x="662" y="140" />
              <mxPoint x="738" y="133.76953125" />
            </Array>
          </mxGeometry>
        </mxCell>
        <mxCell id="1fSh-lm8JhJzwwV4zj-t-13" value="Realizar diagrama casos de uso&lt;br&gt;1" style="ellipse;whiteSpace=wrap;html=1;" vertex="1" parent="1">
          <mxGeometry x="570" y="100" width="80" height="80" as="geometry" />
        </mxCell>
        <mxCell id="1fSh-lm8JhJzwwV4zj-t-64" style="edgeStyle=orthogonalEdgeStyle;rounded=0;orthogonalLoop=1;jettySize=auto;html=1;noEdgeStyle=1;orthogonal=1;" edge="1" parent="1" source="1fSh-lm8JhJzwwV4zj-t-15" target="1fSh-lm8JhJzwwV4zj-t-62">
          <mxGeometry relative="1" as="geometry">
            <Array as="points">
              <mxPoint x="842" y="133.76953125" />
              <mxPoint x="880" y="120" />
              <mxPoint x="1060" y="120" />
              <mxPoint x="1060" y="120" />
              <mxPoint x="1243" y="120" />
              <mxPoint x="1243" y="120" />
              <mxPoint x="1423" y="120" />
              <mxPoint x="1423" y="120" />
              <mxPoint x="1603" y="120" />
              <mxPoint x="1603" y="120" />
              <mxPoint x="1783" y="120" />
              <mxPoint x="1783" y="120" />
              <mxPoint x="1963" y="120" />
              <mxPoint x="2001" y="343.5" />
            </Array>
          </mxGeometry>
        </mxCell>
        <mxCell id="1fSh-lm8JhJzwwV4zj-t-15" value="Realizar casos de uso descriptivo&lt;br&gt;1" style="ellipse;whiteSpace=wrap;html=1;" vertex="1" parent="1">
          <mxGeometry x="750" y="93.76953125" width="80" height="80" as="geometry" />
        </mxCell>
        <mxCell id="1fSh-lm8JhJzwwV4zj-t-97" style="edgeStyle=orthogonalEdgeStyle;rounded=0;orthogonalLoop=1;jettySize=auto;html=1;noEdgeStyle=1;orthogonal=1;" edge="1" parent="1" source="1fSh-lm8JhJzwwV4zj-t-17" target="1fSh-lm8JhJzwwV4zj-t-62">
          <mxGeometry relative="1" as="geometry">
            <Array as="points">
              <mxPoint x="662" y="250" />
              <mxPoint x="700" y="220" />
              <mxPoint x="880" y="220" />
              <mxPoint x="880" y="220" />
              <mxPoint x="1060" y="220" />
              <mxPoint x="1060" y="150" />
              <mxPoint x="1243" y="150" />
              <mxPoint x="1243" y="150" />
              <mxPoint x="1423" y="150" />
              <mxPoint x="1423" y="150" />
              <mxPoint x="1603" y="150" />
              <mxPoint x="1603" y="150" />
              <mxPoint x="1783" y="150" />
              <mxPoint x="1783" y="150" />
              <mxPoint x="1963" y="150" />
              <mxPoint x="1999" y="350.5" />
            </Array>
          </mxGeometry>
        </mxCell>
        <mxCell id="1fSh-lm8JhJzwwV4zj-t-17" value="Realizar diagrama de flujo de datos&lt;br&gt;1" style="ellipse;whiteSpace=wrap;html=1;" vertex="1" parent="1">
          <mxGeometry x="570" y="210" width="80" height="80" as="geometry" />
        </mxCell>
        <mxCell id="1fSh-lm8JhJzwwV4zj-t-98" style="edgeStyle=orthogonalEdgeStyle;rounded=0;orthogonalLoop=1;jettySize=auto;html=1;noEdgeStyle=1;orthogonal=1;" edge="1" parent="1" source="1fSh-lm8JhJzwwV4zj-t-19" target="1fSh-lm8JhJzwwV4zj-t-62">
          <mxGeometry relative="1" as="geometry">
            <Array as="points">
              <mxPoint x="662" y="360" />
              <mxPoint x="700" y="250" />
              <mxPoint x="880" y="250" />
              <mxPoint x="880" y="250" />
              <mxPoint x="1060" y="250" />
              <mxPoint x="1060" y="180" />
              <mxPoint x="1243" y="180" />
              <mxPoint x="1243" y="180" />
              <mxPoint x="1423" y="180" />
              <mxPoint x="1423" y="180" />
              <mxPoint x="1603" y="180" />
              <mxPoint x="1603" y="180" />
              <mxPoint x="1783" y="180" />
              <mxPoint x="1783" y="180" />
              <mxPoint x="1963" y="180" />
              <mxPoint x="1997" y="357.5" />
            </Array>
          </mxGeometry>
        </mxCell>
        <mxCell id="1fSh-lm8JhJzwwV4zj-t-19" value="Realizar diagrama transiciÃ³n de estados&lt;br&gt;1" style="ellipse;whiteSpace=wrap;html=1;" vertex="1" parent="1">
          <mxGeometry x="570" y="320" width="80" height="80" as="geometry" />
        </mxCell>
        <mxCell id="1fSh-lm8JhJzwwV4zj-t-99" style="edgeStyle=orthogonalEdgeStyle;rounded=0;orthogonalLoop=1;jettySize=auto;html=1;noEdgeStyle=1;orthogonal=1;" edge="1" parent="1" source="1fSh-lm8JhJzwwV4zj-t-21" target="1fSh-lm8JhJzwwV4zj-t-62">
          <mxGeometry relative="1" as="geometry">
            <Array as="points">
              <mxPoint x="662" y="470" />
              <mxPoint x="700" y="280" />
              <mxPoint x="880" y="280" />
              <mxPoint x="880" y="280" />
              <mxPoint x="1060" y="280" />
              <mxPoint x="1060" y="210" />
              <mxPoint x="1243" y="210" />
              <mxPoint x="1243" y="210" />
              <mxPoint x="1423" y="210" />
              <mxPoint x="1423" y="210" />
              <mxPoint x="1603" y="210" />
              <mxPoint x="1603" y="210" />
              <mxPoint x="1783" y="210" />
              <mxPoint x="1783" y="210" />
              <mxPoint x="1963" y="210" />
              <mxPoint x="1995" y="364.5" />
            </Array>
          </mxGeometry>
        </mxCell>
        <mxCell id="1fSh-lm8JhJzwwV4zj-t-21" value="Realizar diagrama CPM&lt;br&gt;1" style="ellipse;whiteSpace=wrap;html=1;" vertex="1" parent="1">
          <mxGeometry x="570" y="430" width="80" height="80" as="geometry" />
        </mxCell>
        <mxCell id="1fSh-lm8JhJzwwV4zj-t-100" style="edgeStyle=orthogonalEdgeStyle;rounded=0;orthogonalLoop=1;jettySize=auto;html=1;noEdgeStyle=1;orthogonal=1;" edge="1" parent="1" source="1fSh-lm8JhJzwwV4zj-t-23" target="1fSh-lm8JhJzwwV4zj-t-62">
          <mxGeometry relative="1" as="geometry">
            <Array as="points">
              <mxPoint x="662" y="580" />
              <mxPoint x="700" y="310" />
              <mxPoint x="880" y="310" />
              <mxPoint x="880" y="310" />
              <mxPoint x="1060" y="310" />
              <mxPoint x="1060" y="240" />
              <mxPoint x="1243" y="240" />
              <mxPoint x="1243" y="240" />
              <mxPoint x="1423" y="240" />
              <mxPoint x="1423" y="240" />
              <mxPoint x="1603" y="240" />
              <mxPoint x="1603" y="240" />
              <mxPoint x="1783" y="240" />
              <mxPoint x="1783" y="240" />
              <mxPoint x="1963" y="240" />
              <mxPoint x="1993" y="371.5" />
            </Array>
          </mxGeometry>
        </mxCell>
        <mxCell id="1fSh-lm8JhJzwwV4zj-t-23" value="Realizar Diagrama de frecuencia&lt;br&gt;1" style="ellipse;whiteSpace=wrap;html=1;" vertex="1" parent="1">
          <mxGeometry x="570" y="540" width="80" height="80" as="geometry" />
        </mxCell>
        <mxCell id="1fSh-lm8JhJzwwV4zj-t-30" style="edgeStyle=orthogonalEdgeStyle;rounded=0;orthogonalLoop=1;jettySize=auto;html=1;noEdgeStyle=1;orthogonal=1;" edge="1" parent="1" source="1fSh-lm8JhJzwwV4zj-t-25" target="1fSh-lm8JhJzwwV4zj-t-27">
          <mxGeometry relative="1" as="geometry">
            <Array as="points">
              <mxPoint x="662" y="672.5" />
              <mxPoint x="738" y="475" />
            </Array>
          </mxGeometry>
        </mxCell>
        <mxCell id="1fSh-lm8JhJzwwV4zj-t-33" value="" style="edgeStyle=orthogonalEdgeStyle;rounded=0;orthogonalLoop=1;jettySize=auto;html=1;noEdgeStyle=1;orthogonal=1;" edge="1" parent="1" source="1fSh-lm8JhJzwwV4zj-t-25" target="1fSh-lm8JhJzwwV4zj-t-32">
          <mxGeometry relative="1" as="geometry">
            <Array as="points">
              <mxPoint x="662" y="707.5" />
              <mxPoint x="738" y="593.3333333333333" />
            </Array>
          </mxGeometry>
        </mxCell>
        <mxCell id="1fSh-lm8JhJzwwV4zj-t-25" value="Realizar prototipado rÃ¡pido&lt;br&gt;1" style="ellipse;whiteSpace=wrap;html=1;fillColor=#f8cecc;strokeColor=#b85450;" vertex="1" parent="1">
          <mxGeometry x="570" y="650" width="80" height="80" as="geometry" />
        </mxCell>
        <mxCell id="1fSh-lm8JhJzwwV4zj-t-35" value="" style="edgeStyle=orthogonalEdgeStyle;rounded=0;orthogonalLoop=1;jettySize=auto;html=1;noEdgeStyle=1;orthogonal=1;" edge="1" parent="1" source="1fSh-lm8JhJzwwV4zj-t-27" target="1fSh-lm8JhJzwwV4zj-t-34">
          <mxGeometry relative="1" as="geometry">
            <Array as="points">
              <mxPoint x="842" y="475" />
              <mxPoint x="918" y="380" />
            </Array>
          </mxGeometry>
        </mxCell>
        <mxCell id="1fSh-lm8JhJzwwV4zj-t-27" value="Definir DB a utilizar&lt;br&gt;1" style="ellipse;whiteSpace=wrap;html=1;" vertex="1" parent="1">
          <mxGeometry x="750" y="435" width="80" height="80" as="geometry" />
        </mxCell>
        <mxCell id="1fSh-lm8JhJzwwV4zj-t-37" value="" style="edgeStyle=orthogonalEdgeStyle;rounded=0;orthogonalLoop=1;jettySize=auto;html=1;noEdgeStyle=1;orthogonal=1;" edge="1" parent="1" source="1fSh-lm8JhJzwwV4zj-t-32" target="1fSh-lm8JhJzwwV4zj-t-36">
          <mxGeometry relative="1" as="geometry">
            <Array as="points">
              <mxPoint x="842" y="575.8333333333333" />
              <mxPoint x="918" y="490" />
            </Array>
          </mxGeometry>
        </mxCell>
        <mxCell id="1fSh-lm8JhJzwwV4zj-t-42" style="edgeStyle=orthogonalEdgeStyle;rounded=0;orthogonalLoop=1;jettySize=auto;html=1;noEdgeStyle=1;orthogonal=1;" edge="1" parent="1" source="1fSh-lm8JhJzwwV4zj-t-32" target="1fSh-lm8JhJzwwV4zj-t-41">
          <mxGeometry relative="1" as="geometry">
            <Array as="points">
              <mxPoint x="842" y="610.8333333333333" />
              <mxPoint x="918" y="600" />
            </Array>
          </mxGeometry>
        </mxCell>
        <mxCell id="1fSh-lm8JhJzwwV4zj-t-32" value="Definir lenguaje de programaciÃ³n&lt;br&gt;1" style="ellipse;whiteSpace=wrap;html=1;fillColor=#f8cecc;strokeColor=#b85450;" vertex="1" parent="1">
          <mxGeometry x="750" y="553.3333333333333" width="80" height="80" as="geometry" />
        </mxCell>
        <mxCell id="1fSh-lm8JhJzwwV4zj-t-44" value="" style="edgeStyle=orthogonalEdgeStyle;rounded=0;orthogonalLoop=1;jettySize=auto;html=1;noEdgeStyle=1;orthogonal=1;" edge="1" parent="1" source="1fSh-lm8JhJzwwV4zj-t-34" target="1fSh-lm8JhJzwwV4zj-t-43">
          <mxGeometry relative="1" as="geometry">
            <Array as="points">
              <mxPoint x="1022" y="380" />
              <mxPoint x="1098" y="310" />
            </Array>
          </mxGeometry>
        </mxCell>
        <mxCell id="1fSh-lm8JhJzwwV4zj-t-34" value="Realizar diagrama entidad-relacion&lt;br&gt;1" style="ellipse;whiteSpace=wrap;html=1;" vertex="1" parent="1">
          <mxGeometry x="930" y="340" width="80" height="80" as="geometry" />
        </mxCell>
        <mxCell id="1fSh-lm8JhJzwwV4zj-t-67" style="edgeStyle=orthogonalEdgeStyle;rounded=0;orthogonalLoop=1;jettySize=auto;html=1;noEdgeStyle=1;orthogonal=1;" edge="1" parent="1" source="1fSh-lm8JhJzwwV4zj-t-36" target="1fSh-lm8JhJzwwV4zj-t-62">
          <mxGeometry relative="1" as="geometry">
            <Array as="points">
              <mxPoint x="1022" y="490" />
              <mxPoint x="1060" y="380" />
              <mxPoint x="1243" y="380" />
              <mxPoint x="1243" y="380" />
              <mxPoint x="1423" y="380" />
              <mxPoint x="1423" y="380" />
              <mxPoint x="1603" y="380" />
              <mxPoint x="1603" y="380" />
              <mxPoint x="1783" y="380" />
              <mxPoint x="1783" y="380" />
              <mxPoint x="1963" y="380" />
              <mxPoint x="1995" y="385.5" />
            </Array>
          </mxGeometry>
        </mxCell>
        <mxCell id="1fSh-lm8JhJzwwV4zj-t-36" value="Realizar UML&lt;br&gt;1" style="ellipse;whiteSpace=wrap;html=1;" vertex="1" parent="1">
          <mxGeometry x="930" y="450" width="80" height="80" as="geometry" />
        </mxCell>
        <mxCell id="1fSh-lm8JhJzwwV4zj-t-46" value="" style="edgeStyle=orthogonalEdgeStyle;rounded=0;orthogonalLoop=1;jettySize=auto;html=1;noEdgeStyle=1;orthogonal=1;" edge="1" parent="1" source="1fSh-lm8JhJzwwV4zj-t-41" target="1fSh-lm8JhJzwwV4zj-t-45">
          <mxGeometry relative="1" as="geometry">
            <Array as="points">
              <mxPoint x="1022" y="576.6666666666667" />
              <mxPoint x="1098" y="450" />
            </Array>
          </mxGeometry>
        </mxCell>
        <mxCell id="1fSh-lm8JhJzwwV4zj-t-49" style="edgeStyle=orthogonalEdgeStyle;rounded=0;orthogonalLoop=1;jettySize=auto;html=1;noEdgeStyle=1;orthogonal=1;" edge="1" parent="1" source="1fSh-lm8JhJzwwV4zj-t-41" target="1fSh-lm8JhJzwwV4zj-t-50">
          <mxGeometry relative="1" as="geometry">
            <mxPoint x="1170" y="580" as="targetPoint" />
            <Array as="points">
              <mxPoint x="1024" y="600" />
              <mxPoint x="1098" y="560" />
            </Array>
          </mxGeometry>
        </mxCell>
        <mxCell id="1fSh-lm8JhJzwwV4zj-t-53" style="edgeStyle=orthogonalEdgeStyle;rounded=0;orthogonalLoop=1;jettySize=auto;html=1;noEdgeStyle=1;orthogonal=1;" edge="1" parent="1" source="1fSh-lm8JhJzwwV4zj-t-41" target="1fSh-lm8JhJzwwV4zj-t-52">
          <mxGeometry relative="1" as="geometry">
            <Array as="points">
              <mxPoint x="1022" y="623.3333333333334" />
              <mxPoint x="1098" y="670" />
            </Array>
          </mxGeometry>
        </mxCell>
        <mxCell id="1fSh-lm8JhJzwwV4zj-t-41" value="&lt;div&gt;Descargar IDE&lt;/div&gt;&lt;div&gt;0.5&lt;/div&gt;" style="ellipse;whiteSpace=wrap;html=1;fillColor=#f8cecc;strokeColor=#b85450;" vertex="1" parent="1">
          <mxGeometry x="930" y="560" width="80" height="80" as="geometry" />
        </mxCell>
        <mxCell id="1fSh-lm8JhJzwwV4zj-t-65" style="edgeStyle=orthogonalEdgeStyle;rounded=0;orthogonalLoop=1;jettySize=auto;html=1;noEdgeStyle=1;orthogonal=1;" edge="1" parent="1" source="1fSh-lm8JhJzwwV4zj-t-43" target="1fSh-lm8JhJzwwV4zj-t-62">
          <mxGeometry relative="1" as="geometry">
            <Array as="points">
              <mxPoint x="1204.9999999999998" y="310" />
              <mxPoint x="1243" y="340" />
              <mxPoint x="1423" y="340" />
              <mxPoint x="1423" y="340" />
              <mxPoint x="1603" y="340" />
              <mxPoint x="1603" y="340" />
              <mxPoint x="1783" y="340" />
              <mxPoint x="1783" y="340" />
              <mxPoint x="1963" y="340" />
              <mxPoint x="1993" y="378.5" />
            </Array>
          </mxGeometry>
        </mxCell>
        <mxCell id="1fSh-lm8JhJzwwV4zj-t-43" value="Crear BD y desarrollar sus estructuras&lt;br&gt;3" style="ellipse;whiteSpace=wrap;html=1;" vertex="1" parent="1">
          <mxGeometry x="1111.5" y="270" width="80" height="80" as="geometry" />
        </mxCell>
        <mxCell id="1fSh-lm8JhJzwwV4zj-t-48" value="" style="edgeStyle=orthogonalEdgeStyle;rounded=0;orthogonalLoop=1;jettySize=auto;html=1;noEdgeStyle=1;orthogonal=1;" edge="1" parent="1" source="1fSh-lm8JhJzwwV4zj-t-45" target="1fSh-lm8JhJzwwV4zj-t-47">
          <mxGeometry relative="1" as="geometry">
            <Array as="points">
              <mxPoint x="1204.9999999999998" y="450" />
              <mxPoint x="1281" y="450" />
            </Array>
          </mxGeometry>
        </mxCell>
        <mxCell id="1fSh-lm8JhJzwwV4zj-t-45" value="Desarrollar interfaz&lt;br&gt;6" style="ellipse;whiteSpace=wrap;html=1;" vertex="1" parent="1">
          <mxGeometry x="1111.5" y="410" width="80" height="80" as="geometry" />
        </mxCell>
        <mxCell id="1fSh-lm8JhJzwwV4zj-t-66" style="edgeStyle=orthogonalEdgeStyle;rounded=0;orthogonalLoop=1;jettySize=auto;html=1;noEdgeStyle=1;orthogonal=1;" edge="1" parent="1" source="1fSh-lm8JhJzwwV4zj-t-47" target="1fSh-lm8JhJzwwV4zj-t-62">
          <mxGeometry relative="1" as="geometry">
            <Array as="points">
              <mxPoint x="1385" y="450" />
              <mxPoint x="1423" y="450" />
              <mxPoint x="1603" y="450" />
              <mxPoint x="1603" y="450" />
              <mxPoint x="1783" y="450" />
              <mxPoint x="1783" y="450" />
              <mxPoint x="1963" y="450" />
              <mxPoint x="1997" y="392.5" />
            </Array>
          </mxGeometry>
        </mxCell>
        <mxCell id="1fSh-lm8JhJzwwV4zj-t-47" value="Conectar SW y DB&lt;br&gt;3" style="ellipse;whiteSpace=wrap;html=1;" vertex="1" parent="1">
          <mxGeometry x="1293" y="410" width="80" height="80" as="geometry" />
        </mxCell>
        <mxCell id="1fSh-lm8JhJzwwV4zj-t-68" style="edgeStyle=orthogonalEdgeStyle;rounded=0;orthogonalLoop=1;jettySize=auto;html=1;noEdgeStyle=1;orthogonal=1;" edge="1" parent="1" source="1fSh-lm8JhJzwwV4zj-t-50" target="1fSh-lm8JhJzwwV4zj-t-62">
          <mxGeometry relative="1" as="geometry">
            <Array as="points">
              <mxPoint x="1204.9999999999998" y="560" />
              <mxPoint x="1243" y="520" />
              <mxPoint x="1423" y="520" />
              <mxPoint x="1423" y="480" />
              <mxPoint x="1603" y="480" />
              <mxPoint x="1603" y="480" />
              <mxPoint x="1783" y="480" />
              <mxPoint x="1783" y="480" />
              <mxPoint x="1963" y="480" />
              <mxPoint x="1999" y="399.5" />
            </Array>
          </mxGeometry>
        </mxCell>
        <mxCell id="1fSh-lm8JhJzwwV4zj-t-50" value="&lt;div&gt;Desarrollar roles&lt;/div&gt;&lt;div&gt;4&lt;/div&gt;" style="ellipse;whiteSpace=wrap;html=1;" vertex="1" parent="1">
          <mxGeometry x="1111.5" y="520" width="80" height="80" as="geometry" />
        </mxCell>
        <mxCell id="1fSh-lm8JhJzwwV4zj-t-55" value="" style="edgeStyle=orthogonalEdgeStyle;rounded=0;orthogonalLoop=1;jettySize=auto;html=1;noEdgeStyle=1;orthogonal=1;" edge="1" parent="1" source="1fSh-lm8JhJzwwV4zj-t-52" target="1fSh-lm8JhJzwwV4zj-t-54">
          <mxGeometry relative="1" as="geometry">
            <Array as="points">
              <mxPoint x="1204.9999999999998" y="670" />
              <mxPoint x="1281" y="638.75" />
            </Array>
          </mxGeometry>
        </mxCell>
        <mxCell id="1fSh-lm8JhJzwwV4zj-t-52" value="&lt;div&gt;Desarrollo de funcionalidades&lt;/div&gt;&lt;div&gt;4&lt;/div&gt;" style="ellipse;whiteSpace=wrap;html=1;fillColor=#f8cecc;strokeColor=#b85450;" vertex="1" parent="1">
          <mxGeometry x="1111.5" y="630" width="80" height="80" as="geometry" />
        </mxCell>
        <mxCell id="1fSh-lm8JhJzwwV4zj-t-57" value="" style="edgeStyle=orthogonalEdgeStyle;rounded=0;orthogonalLoop=1;jettySize=auto;html=1;noEdgeStyle=1;orthogonal=1;" edge="1" parent="1" source="1fSh-lm8JhJzwwV4zj-t-54" target="1fSh-lm8JhJzwwV4zj-t-56">
          <mxGeometry relative="1" as="geometry">
            <Array as="points">
              <mxPoint x="1385" y="638.75" />
              <mxPoint x="1461" y="608.75" />
            </Array>
          </mxGeometry>
        </mxCell>
        <mxCell id="1fSh-lm8JhJzwwV4zj-t-54" value="Implementar seguridad&lt;br&gt;5" style="ellipse;whiteSpace=wrap;html=1;fillColor=#f8cecc;strokeColor=#b85450;" vertex="1" parent="1">
          <mxGeometry x="1293" y="598.75" width="80" height="80" as="geometry" />
        </mxCell>
        <mxCell id="1fSh-lm8JhJzwwV4zj-t-59" value="" style="edgeStyle=orthogonalEdgeStyle;rounded=0;orthogonalLoop=1;jettySize=auto;html=1;noEdgeStyle=1;orthogonal=1;" edge="1" parent="1" source="1fSh-lm8JhJzwwV4zj-t-56" target="1fSh-lm8JhJzwwV4zj-t-58">
          <mxGeometry relative="1" as="geometry">
            <Array as="points">
              <mxPoint x="1565" y="608.75" />
              <mxPoint x="1641" y="578.75" />
            </Array>
          </mxGeometry>
        </mxCell>
        <mxCell id="1fSh-lm8JhJzwwV4zj-t-56" value="Testear sistema&lt;br&gt;1" style="ellipse;whiteSpace=wrap;html=1;fillColor=#f8cecc;strokeColor=#b85450;" vertex="1" parent="1">
          <mxGeometry x="1473" y="568.75" width="80" height="80" as="geometry" />
        </mxCell>
        <mxCell id="1fSh-lm8JhJzwwV4zj-t-61" value="" style="edgeStyle=orthogonalEdgeStyle;rounded=0;orthogonalLoop=1;jettySize=auto;html=1;noEdgeStyle=1;orthogonal=1;" edge="1" parent="1" source="1fSh-lm8JhJzwwV4zj-t-58" target="1fSh-lm8JhJzwwV4zj-t-60">
          <mxGeometry relative="1" as="geometry">
            <Array as="points">
              <mxPoint x="1745" y="578.75" />
              <mxPoint x="1821" y="550" />
            </Array>
          </mxGeometry>
        </mxCell>
        <mxCell id="1fSh-lm8JhJzwwV4zj-t-58" value="Depurar sistema&lt;br&gt;2" style="ellipse;whiteSpace=wrap;html=1;fillColor=#f8cecc;strokeColor=#b85450;" vertex="1" parent="1">
          <mxGeometry x="1653" y="538.75" width="80" height="80" as="geometry" />
        </mxCell>
        <mxCell id="1fSh-lm8JhJzwwV4zj-t-63" value="" style="edgeStyle=orthogonalEdgeStyle;rounded=0;orthogonalLoop=1;jettySize=auto;html=1;noEdgeStyle=1;orthogonal=1;" edge="1" parent="1" source="1fSh-lm8JhJzwwV4zj-t-60" target="1fSh-lm8JhJzwwV4zj-t-62">
          <mxGeometry relative="1" as="geometry">
            <Array as="points">
              <mxPoint x="1925" y="550" />
              <mxPoint x="2001" y="406.5" />
            </Array>
          </mxGeometry>
        </mxCell>
        <mxCell id="1fSh-lm8JhJzwwV4zj-t-60" value="Implementar y entregar el sistema&lt;br&gt;0.5" style="ellipse;whiteSpace=wrap;html=1;fillColor=#f8cecc;strokeColor=#b85450;" vertex="1" parent="1">
          <mxGeometry x="1833" y="510" width="80" height="80" as="geometry" />
        </mxCell>
        <mxCell id="1fSh-lm8JhJzwwV4zj-t-62" value="fin" style="ellipse;whiteSpace=wrap;html=1;" vertex="1" parent="1">
          <mxGeometry x="2013" y="335" width="80" height="80" as="geometry" />
        </mxCell>
        <mxCell id="1fSh-lm8JhJzwwV4zj-t-69" value="" style="shape=table;startSize=0;container=1;collapsible=0;childLayout=tableLayout;swimlaneLine=1;strokeWidth=1;" vertex="1" parent="1">
          <mxGeometry x="200" y="300" width="95" height="60" as="geometry" />
        </mxCell>
        <mxCell id="1fSh-lm8JhJzwwV4zj-t-70" value="" style="shape=tableRow;horizontal=0;startSize=0;swimlaneHead=0;swimlaneBody=0;strokeColor=inherit;top=0;left=0;bottom=0;right=0;collapsible=0;dropTarget=0;fillColor=none;points=[[0,0.5],[1,0.5]];portConstraint=eastwest;" vertex="1" parent="1fSh-lm8JhJzwwV4zj-t-69">
          <mxGeometry width="95" height="30" as="geometry" />
        </mxCell>
        <mxCell id="1fSh-lm8JhJzwwV4zj-t-71" value="0" style="shape=partialRectangle;html=1;whiteSpace=wrap;connectable=0;strokeColor=inherit;overflow=hidden;fillColor=none;top=0;left=0;bottom=0;right=0;pointerEvents=1;" vertex="1" parent="1fSh-lm8JhJzwwV4zj-t-70">
          <mxGeometry width="48" height="30" as="geometry">
            <mxRectangle width="48" height="30" as="alternateBounds" />
          </mxGeometry>
        </mxCell>
        <mxCell id="1fSh-lm8JhJzwwV4zj-t-72" value="0.5" style="shape=partialRectangle;html=1;whiteSpace=wrap;connectable=0;strokeColor=inherit;overflow=hidden;fillColor=none;top=0;left=0;bottom=0;right=0;pointerEvents=1;" vertex="1" parent="1fSh-lm8JhJzwwV4zj-t-70">
          <mxGeometry x="48" width="47" height="30" as="geometry">
            <mxRectangle width="47" height="30" as="alternateBounds" />
          </mxGeometry>
        </mxCell>
        <mxCell id="1fSh-lm8JhJzwwV4zj-t-73" value="" style="shape=tableRow;horizontal=0;startSize=0;swimlaneHead=0;swimlaneBody=0;strokeColor=inherit;top=0;left=0;bottom=0;right=0;collapsible=0;dropTarget=0;fillColor=none;points=[[0,0.5],[1,0.5]];portConstraint=eastwest;" vertex="1" parent="1fSh-lm8JhJzwwV4zj-t-69">
          <mxGeometry y="30" width="95" height="30" as="geometry" />
        </mxCell>
        <mxCell id="1fSh-lm8JhJzwwV4zj-t-74" value="0" style="shape=partialRectangle;html=1;whiteSpace=wrap;connectable=0;strokeColor=inherit;overflow=hidden;fillColor=none;top=0;left=0;bottom=0;right=0;pointerEvents=1;" vertex="1" parent="1fSh-lm8JhJzwwV4zj-t-73">
          <mxGeometry width="48" height="30" as="geometry">
            <mxRectangle width="48" height="30" as="alternateBounds" />
          </mxGeometry>
        </mxCell>
        <mxCell id="1fSh-lm8JhJzwwV4zj-t-75" value="0.5" style="shape=partialRectangle;html=1;whiteSpace=wrap;connectable=0;strokeColor=inherit;overflow=hidden;fillColor=none;top=0;left=0;bottom=0;right=0;pointerEvents=1;" vertex="1" parent="1fSh-lm8JhJzwwV4zj-t-73">
          <mxGeometry x="48" width="47" height="30" as="geometry">
            <mxRectangle width="47" height="30" as="alternateBounds" />
          </mxGeometry>
        </mxCell>
        <mxCell id="1fSh-lm8JhJzwwV4zj-t-76" value="" style="shape=table;startSize=0;container=1;collapsible=0;childLayout=tableLayout;swimlaneLine=1;strokeWidth=1;" vertex="1" parent="1">
          <mxGeometry x="360" y="300" width="95" height="60" as="geometry" />
        </mxCell>
        <mxCell id="1fSh-lm8JhJzwwV4zj-t-77" value="" style="shape=tableRow;horizontal=0;startSize=0;swimlaneHead=0;swimlaneBody=0;strokeColor=inherit;top=0;left=0;bottom=0;right=0;collapsible=0;dropTarget=0;fillColor=none;points=[[0,0.5],[1,0.5]];portConstraint=eastwest;" vertex="1" parent="1fSh-lm8JhJzwwV4zj-t-76">
          <mxGeometry width="95" height="30" as="geometry" />
        </mxCell>
        <mxCell id="1fSh-lm8JhJzwwV4zj-t-78" value="0.5" style="shape=partialRectangle;html=1;whiteSpace=wrap;connectable=0;strokeColor=inherit;overflow=hidden;fillColor=none;top=0;left=0;bottom=0;right=0;pointerEvents=1;" vertex="1" parent="1fSh-lm8JhJzwwV4zj-t-77">
          <mxGeometry width="48" height="30" as="geometry">
            <mxRectangle width="48" height="30" as="alternateBounds" />
          </mxGeometry>
        </mxCell>
        <mxCell id="1fSh-lm8JhJzwwV4zj-t-79" value="1" style="shape=partialRectangle;html=1;whiteSpace=wrap;connectable=0;strokeColor=inherit;overflow=hidden;fillColor=none;top=0;left=0;bottom=0;right=0;pointerEvents=1;" vertex="1" parent="1fSh-lm8JhJzwwV4zj-t-77">
          <mxGeometry x="48" width="47" height="30" as="geometry">
            <mxRectangle width="47" height="30" as="alternateBounds" />
          </mxGeometry>
        </mxCell>
        <mxCell id="1fSh-lm8JhJzwwV4zj-t-80" value="" style="shape=tableRow;horizontal=0;startSize=0;swimlaneHead=0;swimlaneBody=0;strokeColor=inherit;top=0;left=0;bottom=0;right=0;collapsible=0;dropTarget=0;fillColor=none;points=[[0,0.5],[1,0.5]];portConstraint=eastwest;" vertex="1" parent="1fSh-lm8JhJzwwV4zj-t-76">
          <mxGeometry y="30" width="95" height="30" as="geometry" />
        </mxCell>
        <mxCell id="1fSh-lm8JhJzwwV4zj-t-81" value="0.5" style="shape=partialRectangle;html=1;whiteSpace=wrap;connectable=0;strokeColor=inherit;overflow=hidden;fillColor=none;top=0;left=0;bottom=0;right=0;pointerEvents=1;" vertex="1" parent="1fSh-lm8JhJzwwV4zj-t-80">
          <mxGeometry width="48" height="30" as="geometry">
            <mxRectangle width="48" height="30" as="alternateBounds" />
          </mxGeometry>
        </mxCell>
        <mxCell id="1fSh-lm8JhJzwwV4zj-t-82" value="1" style="shape=partialRectangle;html=1;whiteSpace=wrap;connectable=0;strokeColor=inherit;overflow=hidden;fillColor=none;top=0;left=0;bottom=0;right=0;pointerEvents=1;" vertex="1" parent="1fSh-lm8JhJzwwV4zj-t-80">
          <mxGeometry x="48" width="47" height="30" as="geometry">
            <mxRectangle width="47" height="30" as="alternateBounds" />
          </mxGeometry>
        </mxCell>
        <mxCell id="1fSh-lm8JhJzwwV4zj-t-83" value="" style="shape=table;startSize=0;container=1;collapsible=0;childLayout=tableLayout;swimlaneLine=1;strokeWidth=1;" vertex="1" parent="1">
          <mxGeometry x="557" y="30" width="95" height="60" as="geometry" />
        </mxCell>
        <mxCell id="1fSh-lm8JhJzwwV4zj-t-84" value="" style="shape=tableRow;horizontal=0;startSize=0;swimlaneHead=0;swimlaneBody=0;strokeColor=inherit;top=0;left=0;bottom=0;right=0;collapsible=0;dropTarget=0;fillColor=none;points=[[0,0.5],[1,0.5]];portConstraint=eastwest;" vertex="1" parent="1fSh-lm8JhJzwwV4zj-t-83">
          <mxGeometry width="95" height="30" as="geometry" />
        </mxCell>
        <mxCell id="1fSh-lm8JhJzwwV4zj-t-85" value="1" style="shape=partialRectangle;html=1;whiteSpace=wrap;connectable=0;strokeColor=inherit;overflow=hidden;fillColor=none;top=0;left=0;bottom=0;right=0;pointerEvents=1;" vertex="1" parent="1fSh-lm8JhJzwwV4zj-t-84">
          <mxGeometry width="48" height="30" as="geometry">
            <mxRectangle width="48" height="30" as="alternateBounds" />
          </mxGeometry>
        </mxCell>
        <mxCell id="1fSh-lm8JhJzwwV4zj-t-86" value="2" style="shape=partialRectangle;html=1;whiteSpace=wrap;connectable=0;strokeColor=inherit;overflow=hidden;fillColor=none;top=0;left=0;bottom=0;right=0;pointerEvents=1;" vertex="1" parent="1fSh-lm8JhJzwwV4zj-t-84">
          <mxGeometry x="48" width="47" height="30" as="geometry">
            <mxRectangle width="47" height="30" as="alternateBounds" />
          </mxGeometry>
        </mxCell>
        <mxCell id="1fSh-lm8JhJzwwV4zj-t-87" value="" style="shape=tableRow;horizontal=0;startSize=0;swimlaneHead=0;swimlaneBody=0;strokeColor=inherit;top=0;left=0;bottom=0;right=0;collapsible=0;dropTarget=0;fillColor=none;points=[[0,0.5],[1,0.5]];portConstraint=eastwest;" vertex="1" parent="1fSh-lm8JhJzwwV4zj-t-83">
          <mxGeometry y="30" width="95" height="30" as="geometry" />
        </mxCell>
        <mxCell id="1fSh-lm8JhJzwwV4zj-t-88" value="14" style="shape=partialRectangle;html=1;whiteSpace=wrap;connectable=0;strokeColor=inherit;overflow=hidden;fillColor=none;top=0;left=0;bottom=0;right=0;pointerEvents=1;" vertex="1" parent="1fSh-lm8JhJzwwV4zj-t-87">
          <mxGeometry width="48" height="30" as="geometry">
            <mxRectangle width="48" height="30" as="alternateBounds" />
          </mxGeometry>
        </mxCell>
        <mxCell id="1fSh-lm8JhJzwwV4zj-t-89" value="15" style="shape=partialRectangle;html=1;whiteSpace=wrap;connectable=0;strokeColor=inherit;overflow=hidden;fillColor=none;top=0;left=0;bottom=0;right=0;pointerEvents=1;" vertex="1" parent="1fSh-lm8JhJzwwV4zj-t-87">
          <mxGeometry x="48" width="47" height="30" as="geometry">
            <mxRectangle width="47" height="30" as="alternateBounds" />
          </mxGeometry>
        </mxCell>
        <mxCell id="1fSh-lm8JhJzwwV4zj-t-90" value="" style="shape=table;startSize=0;container=1;collapsible=0;childLayout=tableLayout;swimlaneLine=1;strokeWidth=1;" vertex="1" parent="1">
          <mxGeometry x="640" y="180" width="50" height="40" as="geometry" />
        </mxCell>
        <mxCell id="1fSh-lm8JhJzwwV4zj-t-91" value="" style="shape=tableRow;horizontal=0;startSize=0;swimlaneHead=0;swimlaneBody=0;strokeColor=inherit;top=0;left=0;bottom=0;right=0;collapsible=0;dropTarget=0;fillColor=none;points=[[0,0.5],[1,0.5]];portConstraint=eastwest;" vertex="1" parent="1fSh-lm8JhJzwwV4zj-t-90">
          <mxGeometry width="50" height="20" as="geometry" />
        </mxCell>
        <mxCell id="1fSh-lm8JhJzwwV4zj-t-92" value="1" style="shape=partialRectangle;html=1;whiteSpace=wrap;connectable=0;strokeColor=inherit;overflow=hidden;fillColor=none;top=0;left=0;bottom=0;right=0;pointerEvents=1;" vertex="1" parent="1fSh-lm8JhJzwwV4zj-t-91">
          <mxGeometry width="25" height="20" as="geometry">
            <mxRectangle width="25" height="20" as="alternateBounds" />
          </mxGeometry>
        </mxCell>
        <mxCell id="1fSh-lm8JhJzwwV4zj-t-93" value="2" style="shape=partialRectangle;html=1;whiteSpace=wrap;connectable=0;strokeColor=inherit;overflow=hidden;fillColor=none;top=0;left=0;bottom=0;right=0;pointerEvents=1;" vertex="1" parent="1fSh-lm8JhJzwwV4zj-t-91">
          <mxGeometry x="25" width="25" height="20" as="geometry">
            <mxRectangle width="25" height="20" as="alternateBounds" />
          </mxGeometry>
        </mxCell>
        <mxCell id="1fSh-lm8JhJzwwV4zj-t-94" value="" style="shape=tableRow;horizontal=0;startSize=0;swimlaneHead=0;swimlaneBody=0;strokeColor=inherit;top=0;left=0;bottom=0;right=0;collapsible=0;dropTarget=0;fillColor=none;points=[[0,0.5],[1,0.5]];portConstraint=eastwest;" vertex="1" parent="1fSh-lm8JhJzwwV4zj-t-90">
          <mxGeometry y="20" width="50" height="20" as="geometry" />
        </mxCell>
        <mxCell id="1fSh-lm8JhJzwwV4zj-t-95" value="15" style="shape=partialRectangle;html=1;whiteSpace=wrap;connectable=0;strokeColor=inherit;overflow=hidden;fillColor=none;top=0;left=0;bottom=0;right=0;pointerEvents=1;" vertex="1" parent="1fSh-lm8JhJzwwV4zj-t-94">
          <mxGeometry width="25" height="20" as="geometry">
            <mxRectangle width="25" height="20" as="alternateBounds" />
          </mxGeometry>
        </mxCell>
        <mxCell id="1fSh-lm8JhJzwwV4zj-t-96" value="16" style="shape=partialRectangle;html=1;whiteSpace=wrap;connectable=0;strokeColor=inherit;overflow=hidden;fillColor=none;top=0;left=0;bottom=0;right=0;pointerEvents=1;" vertex="1" parent="1fSh-lm8JhJzwwV4zj-t-94">
          <mxGeometry x="25" width="25" height="20" as="geometry">
            <mxRectangle width="25" height="20" as="alternateBounds" />
          </mxGeometry>
        </mxCell>
        <mxCell id="1fSh-lm8JhJzwwV4zj-t-101" value="" style="shape=table;startSize=0;container=1;collapsible=0;childLayout=tableLayout;swimlaneLine=1;strokeWidth=1;" vertex="1" parent="1">
          <mxGeometry x="530" y="390" width="50" height="40" as="geometry" />
        </mxCell>
        <mxCell id="1fSh-lm8JhJzwwV4zj-t-102" value="" style="shape=tableRow;horizontal=0;startSize=0;swimlaneHead=0;swimlaneBody=0;strokeColor=inherit;top=0;left=0;bottom=0;right=0;collapsible=0;dropTarget=0;fillColor=none;points=[[0,0.5],[1,0.5]];portConstraint=eastwest;" vertex="1" parent="1fSh-lm8JhJzwwV4zj-t-101">
          <mxGeometry width="50" height="20" as="geometry" />
        </mxCell>
        <mxCell id="1fSh-lm8JhJzwwV4zj-t-103" value="1" style="shape=partialRectangle;html=1;whiteSpace=wrap;connectable=0;strokeColor=inherit;overflow=hidden;fillColor=none;top=0;left=0;bottom=0;right=0;pointerEvents=1;" vertex="1" parent="1fSh-lm8JhJzwwV4zj-t-102">
          <mxGeometry width="25" height="20" as="geometry">
            <mxRectangle width="25" height="20" as="alternateBounds" />
          </mxGeometry>
        </mxCell>
        <mxCell id="1fSh-lm8JhJzwwV4zj-t-104" value="2" style="shape=partialRectangle;html=1;whiteSpace=wrap;connectable=0;strokeColor=inherit;overflow=hidden;fillColor=none;top=0;left=0;bottom=0;right=0;pointerEvents=1;" vertex="1" parent="1fSh-lm8JhJzwwV4zj-t-102">
          <mxGeometry x="25" width="25" height="20" as="geometry">
            <mxRectangle width="25" height="20" as="alternateBounds" />
          </mxGeometry>
        </mxCell>
        <mxCell id="1fSh-lm8JhJzwwV4zj-t-105" value="" style="shape=tableRow;horizontal=0;startSize=0;swimlaneHead=0;swimlaneBody=0;strokeColor=inherit;top=0;left=0;bottom=0;right=0;collapsible=0;dropTarget=0;fillColor=none;points=[[0,0.5],[1,0.5]];portConstraint=eastwest;" vertex="1" parent="1fSh-lm8JhJzwwV4zj-t-101">
          <mxGeometry y="20" width="50" height="20" as="geometry" />
        </mxCell>
        <mxCell id="1fSh-lm8JhJzwwV4zj-t-106" value="15" style="shape=partialRectangle;html=1;whiteSpace=wrap;connectable=0;strokeColor=inherit;overflow=hidden;fillColor=none;top=0;left=0;bottom=0;right=0;pointerEvents=1;" vertex="1" parent="1fSh-lm8JhJzwwV4zj-t-105">
          <mxGeometry width="25" height="20" as="geometry">
            <mxRectangle width="25" height="20" as="alternateBounds" />
          </mxGeometry>
        </mxCell>
        <mxCell id="1fSh-lm8JhJzwwV4zj-t-107" value="16" style="shape=partialRectangle;html=1;whiteSpace=wrap;connectable=0;strokeColor=inherit;overflow=hidden;fillColor=none;top=0;left=0;bottom=0;right=0;pointerEvents=1;" vertex="1" parent="1fSh-lm8JhJzwwV4zj-t-105">
          <mxGeometry x="25" width="25" height="20" as="geometry">
            <mxRectangle width="25" height="20" as="alternateBounds" />
          </mxGeometry>
        </mxCell>
        <mxCell id="1fSh-lm8JhJzwwV4zj-t-108" value="" style="shape=table;startSize=0;container=1;collapsible=0;childLayout=tableLayout;swimlaneLine=1;strokeWidth=1;" vertex="1" parent="1">
          <mxGeometry x="540" y="490" width="50" height="40" as="geometry" />
        </mxCell>
        <mxCell id="1fSh-lm8JhJzwwV4zj-t-109" value="" style="shape=tableRow;horizontal=0;startSize=0;swimlaneHead=0;swimlaneBody=0;strokeColor=inherit;top=0;left=0;bottom=0;right=0;collapsible=0;dropTarget=0;fillColor=none;points=[[0,0.5],[1,0.5]];portConstraint=eastwest;" vertex="1" parent="1fSh-lm8JhJzwwV4zj-t-108">
          <mxGeometry width="50" height="20" as="geometry" />
        </mxCell>
        <mxCell id="1fSh-lm8JhJzwwV4zj-t-110" value="1" style="shape=partialRectangle;html=1;whiteSpace=wrap;connectable=0;strokeColor=inherit;overflow=hidden;fillColor=none;top=0;left=0;bottom=0;right=0;pointerEvents=1;" vertex="1" parent="1fSh-lm8JhJzwwV4zj-t-109">
          <mxGeometry width="25" height="20" as="geometry">
            <mxRectangle width="25" height="20" as="alternateBounds" />
          </mxGeometry>
        </mxCell>
        <mxCell id="1fSh-lm8JhJzwwV4zj-t-111" value="2" style="shape=partialRectangle;html=1;whiteSpace=wrap;connectable=0;strokeColor=inherit;overflow=hidden;fillColor=none;top=0;left=0;bottom=0;right=0;pointerEvents=1;" vertex="1" parent="1fSh-lm8JhJzwwV4zj-t-109">
          <mxGeometry x="25" width="25" height="20" as="geometry">
            <mxRectangle width="25" height="20" as="alternateBounds" />
          </mxGeometry>
        </mxCell>
        <mxCell id="1fSh-lm8JhJzwwV4zj-t-112" value="" style="shape=tableRow;horizontal=0;startSize=0;swimlaneHead=0;swimlaneBody=0;strokeColor=inherit;top=0;left=0;bottom=0;right=0;collapsible=0;dropTarget=0;fillColor=none;points=[[0,0.5],[1,0.5]];portConstraint=eastwest;" vertex="1" parent="1fSh-lm8JhJzwwV4zj-t-108">
          <mxGeometry y="20" width="50" height="20" as="geometry" />
        </mxCell>
        <mxCell id="1fSh-lm8JhJzwwV4zj-t-113" value="15" style="shape=partialRectangle;html=1;whiteSpace=wrap;connectable=0;strokeColor=inherit;overflow=hidden;fillColor=none;top=0;left=0;bottom=0;right=0;pointerEvents=1;" vertex="1" parent="1fSh-lm8JhJzwwV4zj-t-112">
          <mxGeometry width="25" height="20" as="geometry">
            <mxRectangle width="25" height="20" as="alternateBounds" />
          </mxGeometry>
        </mxCell>
        <mxCell id="1fSh-lm8JhJzwwV4zj-t-114" value="16" style="shape=partialRectangle;html=1;whiteSpace=wrap;connectable=0;strokeColor=inherit;overflow=hidden;fillColor=none;top=0;left=0;bottom=0;right=0;pointerEvents=1;" vertex="1" parent="1fSh-lm8JhJzwwV4zj-t-112">
          <mxGeometry x="25" width="25" height="20" as="geometry">
            <mxRectangle width="25" height="20" as="alternateBounds" />
          </mxGeometry>
        </mxCell>
        <mxCell id="1fSh-lm8JhJzwwV4zj-t-115" value="" style="shape=table;startSize=0;container=1;collapsible=0;childLayout=tableLayout;swimlaneLine=1;strokeWidth=1;" vertex="1" parent="1">
          <mxGeometry x="550" y="600" width="50" height="40" as="geometry" />
        </mxCell>
        <mxCell id="1fSh-lm8JhJzwwV4zj-t-116" value="" style="shape=tableRow;horizontal=0;startSize=0;swimlaneHead=0;swimlaneBody=0;strokeColor=inherit;top=0;left=0;bottom=0;right=0;collapsible=0;dropTarget=0;fillColor=none;points=[[0,0.5],[1,0.5]];portConstraint=eastwest;" vertex="1" parent="1fSh-lm8JhJzwwV4zj-t-115">
          <mxGeometry width="50" height="20" as="geometry" />
        </mxCell>
        <mxCell id="1fSh-lm8JhJzwwV4zj-t-117" value="1" style="shape=partialRectangle;html=1;whiteSpace=wrap;connectable=0;strokeColor=inherit;overflow=hidden;fillColor=none;top=0;left=0;bottom=0;right=0;pointerEvents=1;" vertex="1" parent="1fSh-lm8JhJzwwV4zj-t-116">
          <mxGeometry width="25" height="20" as="geometry">
            <mxRectangle width="25" height="20" as="alternateBounds" />
          </mxGeometry>
        </mxCell>
        <mxCell id="1fSh-lm8JhJzwwV4zj-t-118" value="2" style="shape=partialRectangle;html=1;whiteSpace=wrap;connectable=0;strokeColor=inherit;overflow=hidden;fillColor=none;top=0;left=0;bottom=0;right=0;pointerEvents=1;" vertex="1" parent="1fSh-lm8JhJzwwV4zj-t-116">
          <mxGeometry x="25" width="25" height="20" as="geometry">
            <mxRectangle width="25" height="20" as="alternateBounds" />
          </mxGeometry>
        </mxCell>
        <mxCell id="1fSh-lm8JhJzwwV4zj-t-119" value="" style="shape=tableRow;horizontal=0;startSize=0;swimlaneHead=0;swimlaneBody=0;strokeColor=inherit;top=0;left=0;bottom=0;right=0;collapsible=0;dropTarget=0;fillColor=none;points=[[0,0.5],[1,0.5]];portConstraint=eastwest;" vertex="1" parent="1fSh-lm8JhJzwwV4zj-t-115">
          <mxGeometry y="20" width="50" height="20" as="geometry" />
        </mxCell>
        <mxCell id="1fSh-lm8JhJzwwV4zj-t-120" value="15" style="shape=partialRectangle;html=1;whiteSpace=wrap;connectable=0;strokeColor=inherit;overflow=hidden;fillColor=none;top=0;left=0;bottom=0;right=0;pointerEvents=1;" vertex="1" parent="1fSh-lm8JhJzwwV4zj-t-119">
          <mxGeometry width="25" height="20" as="geometry">
            <mxRectangle width="25" height="20" as="alternateBounds" />
          </mxGeometry>
        </mxCell>
        <mxCell id="1fSh-lm8JhJzwwV4zj-t-121" value="16" style="shape=partialRectangle;html=1;whiteSpace=wrap;connectable=0;strokeColor=inherit;overflow=hidden;fillColor=none;top=0;left=0;bottom=0;right=0;pointerEvents=1;" vertex="1" parent="1fSh-lm8JhJzwwV4zj-t-119">
          <mxGeometry x="25" width="25" height="20" as="geometry">
            <mxRectangle width="25" height="20" as="alternateBounds" />
          </mxGeometry>
        </mxCell>
        <mxCell id="1fSh-lm8JhJzwwV4zj-t-122" value="" style="shape=table;startSize=0;container=1;collapsible=0;childLayout=tableLayout;swimlaneLine=1;strokeWidth=1;" vertex="1" parent="1">
          <mxGeometry x="580" y="740" width="50" height="40" as="geometry" />
        </mxCell>
        <mxCell id="1fSh-lm8JhJzwwV4zj-t-123" value="" style="shape=tableRow;horizontal=0;startSize=0;swimlaneHead=0;swimlaneBody=0;strokeColor=inherit;top=0;left=0;bottom=0;right=0;collapsible=0;dropTarget=0;fillColor=none;points=[[0,0.5],[1,0.5]];portConstraint=eastwest;" vertex="1" parent="1fSh-lm8JhJzwwV4zj-t-122">
          <mxGeometry width="50" height="20" as="geometry" />
        </mxCell>
        <mxCell id="1fSh-lm8JhJzwwV4zj-t-124" value="1" style="shape=partialRectangle;html=1;whiteSpace=wrap;connectable=0;strokeColor=inherit;overflow=hidden;fillColor=none;top=0;left=0;bottom=0;right=0;pointerEvents=1;" vertex="1" parent="1fSh-lm8JhJzwwV4zj-t-123">
          <mxGeometry width="25" height="20" as="geometry">
            <mxRectangle width="25" height="20" as="alternateBounds" />
          </mxGeometry>
        </mxCell>
        <mxCell id="1fSh-lm8JhJzwwV4zj-t-125" value="2" style="shape=partialRectangle;html=1;whiteSpace=wrap;connectable=0;strokeColor=inherit;overflow=hidden;fillColor=none;top=0;left=0;bottom=0;right=0;pointerEvents=1;" vertex="1" parent="1fSh-lm8JhJzwwV4zj-t-123">
          <mxGeometry x="25" width="25" height="20" as="geometry">
            <mxRectangle width="25" height="20" as="alternateBounds" />
          </mxGeometry>
        </mxCell>
        <mxCell id="1fSh-lm8JhJzwwV4zj-t-126" value="" style="shape=tableRow;horizontal=0;startSize=0;swimlaneHead=0;swimlaneBody=0;strokeColor=inherit;top=0;left=0;bottom=0;right=0;collapsible=0;dropTarget=0;fillColor=none;points=[[0,0.5],[1,0.5]];portConstraint=eastwest;" vertex="1" parent="1fSh-lm8JhJzwwV4zj-t-122">
          <mxGeometry y="20" width="50" height="20" as="geometry" />
        </mxCell>
        <mxCell id="1fSh-lm8JhJzwwV4zj-t-127" value="1" style="shape=partialRectangle;html=1;whiteSpace=wrap;connectable=0;strokeColor=inherit;overflow=hidden;fillColor=none;top=0;left=0;bottom=0;right=0;pointerEvents=1;" vertex="1" parent="1fSh-lm8JhJzwwV4zj-t-126">
          <mxGeometry width="25" height="20" as="geometry">
            <mxRectangle width="25" height="20" as="alternateBounds" />
          </mxGeometry>
        </mxCell>
        <mxCell id="1fSh-lm8JhJzwwV4zj-t-128" value="2" style="shape=partialRectangle;html=1;whiteSpace=wrap;connectable=0;strokeColor=inherit;overflow=hidden;fillColor=none;top=0;left=0;bottom=0;right=0;pointerEvents=1;" vertex="1" parent="1fSh-lm8JhJzwwV4zj-t-126">
          <mxGeometry x="25" width="25" height="20" as="geometry">
            <mxRectangle width="25" height="20" as="alternateBounds" />
          </mxGeometry>
        </mxCell>
        <mxCell id="1fSh-lm8JhJzwwV4zj-t-129" value="" style="shape=table;startSize=0;container=1;collapsible=0;childLayout=tableLayout;swimlaneLine=1;strokeWidth=1;" vertex="1" parent="1">
          <mxGeometry x="730" y="30" width="95" height="60" as="geometry" />
        </mxCell>
        <mxCell id="1fSh-lm8JhJzwwV4zj-t-130" value="" style="shape=tableRow;horizontal=0;startSize=0;swimlaneHead=0;swimlaneBody=0;strokeColor=inherit;top=0;left=0;bottom=0;right=0;collapsible=0;dropTarget=0;fillColor=none;points=[[0,0.5],[1,0.5]];portConstraint=eastwest;" vertex="1" parent="1fSh-lm8JhJzwwV4zj-t-129">
          <mxGeometry width="95" height="30" as="geometry" />
        </mxCell>
        <mxCell id="1fSh-lm8JhJzwwV4zj-t-131" value="2" style="shape=partialRectangle;html=1;whiteSpace=wrap;connectable=0;strokeColor=inherit;overflow=hidden;fillColor=none;top=0;left=0;bottom=0;right=0;pointerEvents=1;" vertex="1" parent="1fSh-lm8JhJzwwV4zj-t-130">
          <mxGeometry width="48" height="30" as="geometry">
            <mxRectangle width="48" height="30" as="alternateBounds" />
          </mxGeometry>
        </mxCell>
        <mxCell id="1fSh-lm8JhJzwwV4zj-t-132" value="3" style="shape=partialRectangle;html=1;whiteSpace=wrap;connectable=0;strokeColor=inherit;overflow=hidden;fillColor=none;top=0;left=0;bottom=0;right=0;pointerEvents=1;" vertex="1" parent="1fSh-lm8JhJzwwV4zj-t-130">
          <mxGeometry x="48" width="47" height="30" as="geometry">
            <mxRectangle width="47" height="30" as="alternateBounds" />
          </mxGeometry>
        </mxCell>
        <mxCell id="1fSh-lm8JhJzwwV4zj-t-133" value="" style="shape=tableRow;horizontal=0;startSize=0;swimlaneHead=0;swimlaneBody=0;strokeColor=inherit;top=0;left=0;bottom=0;right=0;collapsible=0;dropTarget=0;fillColor=none;points=[[0,0.5],[1,0.5]];portConstraint=eastwest;" vertex="1" parent="1fSh-lm8JhJzwwV4zj-t-129">
          <mxGeometry y="30" width="95" height="30" as="geometry" />
        </mxCell>
        <mxCell id="1fSh-lm8JhJzwwV4zj-t-134" value="15" style="shape=partialRectangle;html=1;whiteSpace=wrap;connectable=0;strokeColor=inherit;overflow=hidden;fillColor=none;top=0;left=0;bottom=0;right=0;pointerEvents=1;" vertex="1" parent="1fSh-lm8JhJzwwV4zj-t-133">
          <mxGeometry width="48" height="30" as="geometry">
            <mxRectangle width="48" height="30" as="alternateBounds" />
          </mxGeometry>
        </mxCell>
        <mxCell id="1fSh-lm8JhJzwwV4zj-t-135" value="16" style="shape=partialRectangle;html=1;whiteSpace=wrap;connectable=0;strokeColor=inherit;overflow=hidden;fillColor=none;top=0;left=0;bottom=0;right=0;pointerEvents=1;" vertex="1" parent="1fSh-lm8JhJzwwV4zj-t-133">
          <mxGeometry x="48" width="47" height="30" as="geometry">
            <mxRectangle width="47" height="30" as="alternateBounds" />
          </mxGeometry>
        </mxCell>
        <mxCell id="1fSh-lm8JhJzwwV4zj-t-136" value="" style="shape=table;startSize=0;container=1;collapsible=0;childLayout=tableLayout;swimlaneLine=1;strokeWidth=1;" vertex="1" parent="1">
          <mxGeometry x="750" y="380" width="80" height="50" as="geometry" />
        </mxCell>
        <mxCell id="1fSh-lm8JhJzwwV4zj-t-137" value="" style="shape=tableRow;horizontal=0;startSize=0;swimlaneHead=0;swimlaneBody=0;strokeColor=inherit;top=0;left=0;bottom=0;right=0;collapsible=0;dropTarget=0;fillColor=none;points=[[0,0.5],[1,0.5]];portConstraint=eastwest;" vertex="1" parent="1fSh-lm8JhJzwwV4zj-t-136">
          <mxGeometry width="80" height="25" as="geometry" />
        </mxCell>
        <mxCell id="1fSh-lm8JhJzwwV4zj-t-138" value="2" style="shape=partialRectangle;html=1;whiteSpace=wrap;connectable=0;strokeColor=inherit;overflow=hidden;fillColor=none;top=0;left=0;bottom=0;right=0;pointerEvents=1;" vertex="1" parent="1fSh-lm8JhJzwwV4zj-t-137">
          <mxGeometry width="40" height="25" as="geometry">
            <mxRectangle width="40" height="25" as="alternateBounds" />
          </mxGeometry>
        </mxCell>
        <mxCell id="1fSh-lm8JhJzwwV4zj-t-139" value="3" style="shape=partialRectangle;html=1;whiteSpace=wrap;connectable=0;strokeColor=inherit;overflow=hidden;fillColor=none;top=0;left=0;bottom=0;right=0;pointerEvents=1;" vertex="1" parent="1fSh-lm8JhJzwwV4zj-t-137">
          <mxGeometry x="40" width="40" height="25" as="geometry">
            <mxRectangle width="40" height="25" as="alternateBounds" />
          </mxGeometry>
        </mxCell>
        <mxCell id="1fSh-lm8JhJzwwV4zj-t-140" value="" style="shape=tableRow;horizontal=0;startSize=0;swimlaneHead=0;swimlaneBody=0;strokeColor=inherit;top=0;left=0;bottom=0;right=0;collapsible=0;dropTarget=0;fillColor=none;points=[[0,0.5],[1,0.5]];portConstraint=eastwest;" vertex="1" parent="1fSh-lm8JhJzwwV4zj-t-136">
          <mxGeometry y="25" width="80" height="25" as="geometry" />
        </mxCell>
        <mxCell id="1fSh-lm8JhJzwwV4zj-t-141" value="11" style="shape=partialRectangle;html=1;whiteSpace=wrap;connectable=0;strokeColor=inherit;overflow=hidden;fillColor=none;top=0;left=0;bottom=0;right=0;pointerEvents=1;" vertex="1" parent="1fSh-lm8JhJzwwV4zj-t-140">
          <mxGeometry width="40" height="25" as="geometry">
            <mxRectangle width="40" height="25" as="alternateBounds" />
          </mxGeometry>
        </mxCell>
        <mxCell id="1fSh-lm8JhJzwwV4zj-t-142" value="12" style="shape=partialRectangle;html=1;whiteSpace=wrap;connectable=0;strokeColor=inherit;overflow=hidden;fillColor=none;top=0;left=0;bottom=0;right=0;pointerEvents=1;" vertex="1" parent="1fSh-lm8JhJzwwV4zj-t-140">
          <mxGeometry x="40" width="40" height="25" as="geometry">
            <mxRectangle width="40" height="25" as="alternateBounds" />
          </mxGeometry>
        </mxCell>
        <mxCell id="1fSh-lm8JhJzwwV4zj-t-143" value="" style="shape=table;startSize=0;container=1;collapsible=0;childLayout=tableLayout;swimlaneLine=1;strokeWidth=1;" vertex="1" parent="1">
          <mxGeometry x="750" y="650" width="80" height="50" as="geometry" />
        </mxCell>
        <mxCell id="1fSh-lm8JhJzwwV4zj-t-144" value="" style="shape=tableRow;horizontal=0;startSize=0;swimlaneHead=0;swimlaneBody=0;strokeColor=inherit;top=0;left=0;bottom=0;right=0;collapsible=0;dropTarget=0;fillColor=none;points=[[0,0.5],[1,0.5]];portConstraint=eastwest;" vertex="1" parent="1fSh-lm8JhJzwwV4zj-t-143">
          <mxGeometry width="80" height="25" as="geometry" />
        </mxCell>
        <mxCell id="1fSh-lm8JhJzwwV4zj-t-145" value="2" style="shape=partialRectangle;html=1;whiteSpace=wrap;connectable=0;strokeColor=inherit;overflow=hidden;fillColor=none;top=0;left=0;bottom=0;right=0;pointerEvents=1;" vertex="1" parent="1fSh-lm8JhJzwwV4zj-t-144">
          <mxGeometry width="40" height="25" as="geometry">
            <mxRectangle width="40" height="25" as="alternateBounds" />
          </mxGeometry>
        </mxCell>
        <mxCell id="1fSh-lm8JhJzwwV4zj-t-146" value="3" style="shape=partialRectangle;html=1;whiteSpace=wrap;connectable=0;strokeColor=inherit;overflow=hidden;fillColor=none;top=0;left=0;bottom=0;right=0;pointerEvents=1;" vertex="1" parent="1fSh-lm8JhJzwwV4zj-t-144">
          <mxGeometry x="40" width="40" height="25" as="geometry">
            <mxRectangle width="40" height="25" as="alternateBounds" />
          </mxGeometry>
        </mxCell>
        <mxCell id="1fSh-lm8JhJzwwV4zj-t-147" value="" style="shape=tableRow;horizontal=0;startSize=0;swimlaneHead=0;swimlaneBody=0;strokeColor=inherit;top=0;left=0;bottom=0;right=0;collapsible=0;dropTarget=0;fillColor=none;points=[[0,0.5],[1,0.5]];portConstraint=eastwest;" vertex="1" parent="1fSh-lm8JhJzwwV4zj-t-143">
          <mxGeometry y="25" width="80" height="25" as="geometry" />
        </mxCell>
        <mxCell id="1fSh-lm8JhJzwwV4zj-t-148" value="2" style="shape=partialRectangle;html=1;whiteSpace=wrap;connectable=0;strokeColor=inherit;overflow=hidden;fillColor=none;top=0;left=0;bottom=0;right=0;pointerEvents=1;" vertex="1" parent="1fSh-lm8JhJzwwV4zj-t-147">
          <mxGeometry width="40" height="25" as="geometry">
            <mxRectangle width="40" height="25" as="alternateBounds" />
          </mxGeometry>
        </mxCell>
        <mxCell id="1fSh-lm8JhJzwwV4zj-t-149" value="3" style="shape=partialRectangle;html=1;whiteSpace=wrap;connectable=0;strokeColor=inherit;overflow=hidden;fillColor=none;top=0;left=0;bottom=0;right=0;pointerEvents=1;" vertex="1" parent="1fSh-lm8JhJzwwV4zj-t-147">
          <mxGeometry x="40" width="40" height="25" as="geometry">
            <mxRectangle width="40" height="25" as="alternateBounds" />
          </mxGeometry>
        </mxCell>
        <mxCell id="1fSh-lm8JhJzwwV4zj-t-150" value="" style="shape=table;startSize=0;container=1;collapsible=0;childLayout=tableLayout;swimlaneLine=1;strokeWidth=1;" vertex="1" parent="1">
          <mxGeometry x="920" y="650" width="80" height="50" as="geometry" />
        </mxCell>
        <mxCell id="1fSh-lm8JhJzwwV4zj-t-151" value="" style="shape=tableRow;horizontal=0;startSize=0;swimlaneHead=0;swimlaneBody=0;strokeColor=inherit;top=0;left=0;bottom=0;right=0;collapsible=0;dropTarget=0;fillColor=none;points=[[0,0.5],[1,0.5]];portConstraint=eastwest;" vertex="1" parent="1fSh-lm8JhJzwwV4zj-t-150">
          <mxGeometry width="80" height="25" as="geometry" />
        </mxCell>
        <mxCell id="1fSh-lm8JhJzwwV4zj-t-152" value="3" style="shape=partialRectangle;html=1;whiteSpace=wrap;connectable=0;strokeColor=inherit;overflow=hidden;fillColor=none;top=0;left=0;bottom=0;right=0;pointerEvents=1;" vertex="1" parent="1fSh-lm8JhJzwwV4zj-t-151">
          <mxGeometry width="40" height="25" as="geometry">
            <mxRectangle width="40" height="25" as="alternateBounds" />
          </mxGeometry>
        </mxCell>
        <mxCell id="1fSh-lm8JhJzwwV4zj-t-153" value="3.5" style="shape=partialRectangle;html=1;whiteSpace=wrap;connectable=0;strokeColor=inherit;overflow=hidden;fillColor=none;top=0;left=0;bottom=0;right=0;pointerEvents=1;" vertex="1" parent="1fSh-lm8JhJzwwV4zj-t-151">
          <mxGeometry x="40" width="40" height="25" as="geometry">
            <mxRectangle width="40" height="25" as="alternateBounds" />
          </mxGeometry>
        </mxCell>
        <mxCell id="1fSh-lm8JhJzwwV4zj-t-154" value="" style="shape=tableRow;horizontal=0;startSize=0;swimlaneHead=0;swimlaneBody=0;strokeColor=inherit;top=0;left=0;bottom=0;right=0;collapsible=0;dropTarget=0;fillColor=none;points=[[0,0.5],[1,0.5]];portConstraint=eastwest;" vertex="1" parent="1fSh-lm8JhJzwwV4zj-t-150">
          <mxGeometry y="25" width="80" height="25" as="geometry" />
        </mxCell>
        <mxCell id="1fSh-lm8JhJzwwV4zj-t-155" value="3" style="shape=partialRectangle;html=1;whiteSpace=wrap;connectable=0;strokeColor=inherit;overflow=hidden;fillColor=none;top=0;left=0;bottom=0;right=0;pointerEvents=1;" vertex="1" parent="1fSh-lm8JhJzwwV4zj-t-154">
          <mxGeometry width="40" height="25" as="geometry">
            <mxRectangle width="40" height="25" as="alternateBounds" />
          </mxGeometry>
        </mxCell>
        <mxCell id="1fSh-lm8JhJzwwV4zj-t-156" value="3.5" style="shape=partialRectangle;html=1;whiteSpace=wrap;connectable=0;strokeColor=inherit;overflow=hidden;fillColor=none;top=0;left=0;bottom=0;right=0;pointerEvents=1;" vertex="1" parent="1fSh-lm8JhJzwwV4zj-t-154">
          <mxGeometry x="40" width="40" height="25" as="geometry">
            <mxRectangle width="40" height="25" as="alternateBounds" />
          </mxGeometry>
        </mxCell>
        <mxCell id="1fSh-lm8JhJzwwV4zj-t-157" value="" style="shape=table;startSize=0;container=1;collapsible=0;childLayout=tableLayout;swimlaneLine=1;strokeWidth=1;" vertex="1" parent="1">
          <mxGeometry x="880" y="440" width="50" height="30" as="geometry" />
        </mxCell>
        <mxCell id="1fSh-lm8JhJzwwV4zj-t-158" value="" style="shape=tableRow;horizontal=0;startSize=0;swimlaneHead=0;swimlaneBody=0;strokeColor=inherit;top=0;left=0;bottom=0;right=0;collapsible=0;dropTarget=0;fillColor=none;points=[[0,0.5],[1,0.5]];portConstraint=eastwest;" vertex="1" parent="1fSh-lm8JhJzwwV4zj-t-157">
          <mxGeometry width="50" height="15" as="geometry" />
        </mxCell>
        <mxCell id="1fSh-lm8JhJzwwV4zj-t-159" value="3" style="shape=partialRectangle;html=1;whiteSpace=wrap;connectable=0;strokeColor=inherit;overflow=hidden;fillColor=none;top=0;left=0;bottom=0;right=0;pointerEvents=1;" vertex="1" parent="1fSh-lm8JhJzwwV4zj-t-158">
          <mxGeometry width="25" height="15" as="geometry">
            <mxRectangle width="25" height="15" as="alternateBounds" />
          </mxGeometry>
        </mxCell>
        <mxCell id="1fSh-lm8JhJzwwV4zj-t-160" value="4" style="shape=partialRectangle;html=1;whiteSpace=wrap;connectable=0;strokeColor=inherit;overflow=hidden;fillColor=none;top=0;left=0;bottom=0;right=0;pointerEvents=1;" vertex="1" parent="1fSh-lm8JhJzwwV4zj-t-158">
          <mxGeometry x="25" width="25" height="15" as="geometry">
            <mxRectangle width="25" height="15" as="alternateBounds" />
          </mxGeometry>
        </mxCell>
        <mxCell id="1fSh-lm8JhJzwwV4zj-t-161" value="" style="shape=tableRow;horizontal=0;startSize=0;swimlaneHead=0;swimlaneBody=0;strokeColor=inherit;top=0;left=0;bottom=0;right=0;collapsible=0;dropTarget=0;fillColor=none;points=[[0,0.5],[1,0.5]];portConstraint=eastwest;" vertex="1" parent="1fSh-lm8JhJzwwV4zj-t-157">
          <mxGeometry y="15" width="50" height="15" as="geometry" />
        </mxCell>
        <mxCell id="1fSh-lm8JhJzwwV4zj-t-162" value="15" style="shape=partialRectangle;html=1;whiteSpace=wrap;connectable=0;strokeColor=inherit;overflow=hidden;fillColor=none;top=0;left=0;bottom=0;right=0;pointerEvents=1;" vertex="1" parent="1fSh-lm8JhJzwwV4zj-t-161">
          <mxGeometry width="25" height="15" as="geometry">
            <mxRectangle width="25" height="15" as="alternateBounds" />
          </mxGeometry>
        </mxCell>
        <mxCell id="1fSh-lm8JhJzwwV4zj-t-163" value="16" style="shape=partialRectangle;html=1;whiteSpace=wrap;connectable=0;strokeColor=inherit;overflow=hidden;fillColor=none;top=0;left=0;bottom=0;right=0;pointerEvents=1;" vertex="1" parent="1fSh-lm8JhJzwwV4zj-t-161">
          <mxGeometry x="25" width="25" height="15" as="geometry">
            <mxRectangle width="25" height="15" as="alternateBounds" />
          </mxGeometry>
        </mxCell>
        <mxCell id="1fSh-lm8JhJzwwV4zj-t-164" value="" style="shape=table;startSize=0;container=1;collapsible=0;childLayout=tableLayout;swimlaneLine=1;strokeWidth=1;" vertex="1" parent="1">
          <mxGeometry x="1000" y="320" width="50" height="30" as="geometry" />
        </mxCell>
        <mxCell id="1fSh-lm8JhJzwwV4zj-t-165" value="" style="shape=tableRow;horizontal=0;startSize=0;swimlaneHead=0;swimlaneBody=0;strokeColor=inherit;top=0;left=0;bottom=0;right=0;collapsible=0;dropTarget=0;fillColor=none;points=[[0,0.5],[1,0.5]];portConstraint=eastwest;" vertex="1" parent="1fSh-lm8JhJzwwV4zj-t-164">
          <mxGeometry width="50" height="15" as="geometry" />
        </mxCell>
        <mxCell id="1fSh-lm8JhJzwwV4zj-t-166" value="3" style="shape=partialRectangle;html=1;whiteSpace=wrap;connectable=0;strokeColor=inherit;overflow=hidden;fillColor=none;top=0;left=0;bottom=0;right=0;pointerEvents=1;" vertex="1" parent="1fSh-lm8JhJzwwV4zj-t-165">
          <mxGeometry width="25" height="15" as="geometry">
            <mxRectangle width="25" height="15" as="alternateBounds" />
          </mxGeometry>
        </mxCell>
        <mxCell id="1fSh-lm8JhJzwwV4zj-t-167" value="4" style="shape=partialRectangle;html=1;whiteSpace=wrap;connectable=0;strokeColor=inherit;overflow=hidden;fillColor=none;top=0;left=0;bottom=0;right=0;pointerEvents=1;" vertex="1" parent="1fSh-lm8JhJzwwV4zj-t-165">
          <mxGeometry x="25" width="25" height="15" as="geometry">
            <mxRectangle width="25" height="15" as="alternateBounds" />
          </mxGeometry>
        </mxCell>
        <mxCell id="1fSh-lm8JhJzwwV4zj-t-168" value="" style="shape=tableRow;horizontal=0;startSize=0;swimlaneHead=0;swimlaneBody=0;strokeColor=inherit;top=0;left=0;bottom=0;right=0;collapsible=0;dropTarget=0;fillColor=none;points=[[0,0.5],[1,0.5]];portConstraint=eastwest;" vertex="1" parent="1fSh-lm8JhJzwwV4zj-t-164">
          <mxGeometry y="15" width="50" height="15" as="geometry" />
        </mxCell>
        <mxCell id="1fSh-lm8JhJzwwV4zj-t-169" value="12" style="shape=partialRectangle;html=1;whiteSpace=wrap;connectable=0;strokeColor=inherit;overflow=hidden;fillColor=none;top=0;left=0;bottom=0;right=0;pointerEvents=1;" vertex="1" parent="1fSh-lm8JhJzwwV4zj-t-168">
          <mxGeometry width="25" height="15" as="geometry">
            <mxRectangle width="25" height="15" as="alternateBounds" />
          </mxGeometry>
        </mxCell>
        <mxCell id="1fSh-lm8JhJzwwV4zj-t-170" value="13" style="shape=partialRectangle;html=1;whiteSpace=wrap;connectable=0;strokeColor=inherit;overflow=hidden;fillColor=none;top=0;left=0;bottom=0;right=0;pointerEvents=1;" vertex="1" parent="1fSh-lm8JhJzwwV4zj-t-168">
          <mxGeometry x="25" width="25" height="15" as="geometry">
            <mxRectangle width="25" height="15" as="alternateBounds" />
          </mxGeometry>
        </mxCell>
        <mxCell id="1fSh-lm8JhJzwwV4zj-t-171" value="" style="shape=table;startSize=0;container=1;collapsible=0;childLayout=tableLayout;swimlaneLine=1;strokeWidth=1;" vertex="1" parent="1">
          <mxGeometry x="1189" y="250" width="50" height="30" as="geometry" />
        </mxCell>
        <mxCell id="1fSh-lm8JhJzwwV4zj-t-172" value="" style="shape=tableRow;horizontal=0;startSize=0;swimlaneHead=0;swimlaneBody=0;strokeColor=inherit;top=0;left=0;bottom=0;right=0;collapsible=0;dropTarget=0;fillColor=none;points=[[0,0.5],[1,0.5]];portConstraint=eastwest;" vertex="1" parent="1fSh-lm8JhJzwwV4zj-t-171">
          <mxGeometry width="50" height="15" as="geometry" />
        </mxCell>
        <mxCell id="1fSh-lm8JhJzwwV4zj-t-173" value="4" style="shape=partialRectangle;html=1;whiteSpace=wrap;connectable=0;strokeColor=inherit;overflow=hidden;fillColor=none;top=0;left=0;bottom=0;right=0;pointerEvents=1;" vertex="1" parent="1fSh-lm8JhJzwwV4zj-t-172">
          <mxGeometry width="25" height="15" as="geometry">
            <mxRectangle width="25" height="15" as="alternateBounds" />
          </mxGeometry>
        </mxCell>
        <mxCell id="1fSh-lm8JhJzwwV4zj-t-174" value="7" style="shape=partialRectangle;html=1;whiteSpace=wrap;connectable=0;strokeColor=inherit;overflow=hidden;fillColor=none;top=0;left=0;bottom=0;right=0;pointerEvents=1;" vertex="1" parent="1fSh-lm8JhJzwwV4zj-t-172">
          <mxGeometry x="25" width="25" height="15" as="geometry">
            <mxRectangle width="25" height="15" as="alternateBounds" />
          </mxGeometry>
        </mxCell>
        <mxCell id="1fSh-lm8JhJzwwV4zj-t-175" value="" style="shape=tableRow;horizontal=0;startSize=0;swimlaneHead=0;swimlaneBody=0;strokeColor=inherit;top=0;left=0;bottom=0;right=0;collapsible=0;dropTarget=0;fillColor=none;points=[[0,0.5],[1,0.5]];portConstraint=eastwest;" vertex="1" parent="1fSh-lm8JhJzwwV4zj-t-171">
          <mxGeometry y="15" width="50" height="15" as="geometry" />
        </mxCell>
        <mxCell id="1fSh-lm8JhJzwwV4zj-t-176" value="13" style="shape=partialRectangle;html=1;whiteSpace=wrap;connectable=0;strokeColor=inherit;overflow=hidden;fillColor=none;top=0;left=0;bottom=0;right=0;pointerEvents=1;" vertex="1" parent="1fSh-lm8JhJzwwV4zj-t-175">
          <mxGeometry width="25" height="15" as="geometry">
            <mxRectangle width="25" height="15" as="alternateBounds" />
          </mxGeometry>
        </mxCell>
        <mxCell id="1fSh-lm8JhJzwwV4zj-t-177" value="16" style="shape=partialRectangle;html=1;whiteSpace=wrap;connectable=0;strokeColor=inherit;overflow=hidden;fillColor=none;top=0;left=0;bottom=0;right=0;pointerEvents=1;" vertex="1" parent="1fSh-lm8JhJzwwV4zj-t-175">
          <mxGeometry x="25" width="25" height="15" as="geometry">
            <mxRectangle width="25" height="15" as="alternateBounds" />
          </mxGeometry>
        </mxCell>
        <mxCell id="1fSh-lm8JhJzwwV4zj-t-181" value="" style="shape=table;startSize=0;container=1;collapsible=0;childLayout=tableLayout;swimlaneLine=1;strokeWidth=1;" vertex="1" parent="1">
          <mxGeometry x="1189" y="390" width="50" height="30" as="geometry" />
        </mxCell>
        <mxCell id="1fSh-lm8JhJzwwV4zj-t-182" value="" style="shape=tableRow;horizontal=0;startSize=0;swimlaneHead=0;swimlaneBody=0;strokeColor=inherit;top=0;left=0;bottom=0;right=0;collapsible=0;dropTarget=0;fillColor=none;points=[[0,0.5],[1,0.5]];portConstraint=eastwest;" vertex="1" parent="1fSh-lm8JhJzwwV4zj-t-181">
          <mxGeometry width="50" height="15" as="geometry" />
        </mxCell>
        <mxCell id="1fSh-lm8JhJzwwV4zj-t-183" value="3.5" style="shape=partialRectangle;html=1;whiteSpace=wrap;connectable=0;strokeColor=inherit;overflow=hidden;fillColor=none;top=0;left=0;bottom=0;right=0;pointerEvents=1;" vertex="1" parent="1fSh-lm8JhJzwwV4zj-t-182">
          <mxGeometry width="25" height="15" as="geometry">
            <mxRectangle width="25" height="15" as="alternateBounds" />
          </mxGeometry>
        </mxCell>
        <mxCell id="1fSh-lm8JhJzwwV4zj-t-184" value="9.5" style="shape=partialRectangle;html=1;whiteSpace=wrap;connectable=0;strokeColor=inherit;overflow=hidden;fillColor=none;top=0;left=0;bottom=0;right=0;pointerEvents=1;" vertex="1" parent="1fSh-lm8JhJzwwV4zj-t-182">
          <mxGeometry x="25" width="25" height="15" as="geometry">
            <mxRectangle width="25" height="15" as="alternateBounds" />
          </mxGeometry>
        </mxCell>
        <mxCell id="1fSh-lm8JhJzwwV4zj-t-185" value="" style="shape=tableRow;horizontal=0;startSize=0;swimlaneHead=0;swimlaneBody=0;strokeColor=inherit;top=0;left=0;bottom=0;right=0;collapsible=0;dropTarget=0;fillColor=none;points=[[0,0.5],[1,0.5]];portConstraint=eastwest;" vertex="1" parent="1fSh-lm8JhJzwwV4zj-t-181">
          <mxGeometry y="15" width="50" height="15" as="geometry" />
        </mxCell>
        <mxCell id="1fSh-lm8JhJzwwV4zj-t-186" value="7" style="shape=partialRectangle;html=1;whiteSpace=wrap;connectable=0;strokeColor=inherit;overflow=hidden;fillColor=none;top=0;left=0;bottom=0;right=0;pointerEvents=1;" vertex="1" parent="1fSh-lm8JhJzwwV4zj-t-185">
          <mxGeometry width="25" height="15" as="geometry">
            <mxRectangle width="25" height="15" as="alternateBounds" />
          </mxGeometry>
        </mxCell>
        <mxCell id="1fSh-lm8JhJzwwV4zj-t-187" value="13" style="shape=partialRectangle;html=1;whiteSpace=wrap;connectable=0;strokeColor=inherit;overflow=hidden;fillColor=none;top=0;left=0;bottom=0;right=0;pointerEvents=1;" vertex="1" parent="1fSh-lm8JhJzwwV4zj-t-185">
          <mxGeometry x="25" width="25" height="15" as="geometry">
            <mxRectangle width="25" height="15" as="alternateBounds" />
          </mxGeometry>
        </mxCell>
        <mxCell id="1fSh-lm8JhJzwwV4zj-t-188" value="" style="shape=table;startSize=0;container=1;collapsible=0;childLayout=tableLayout;swimlaneLine=1;strokeWidth=1;" vertex="1" parent="1">
          <mxGeometry x="1370" y="390" width="50" height="30" as="geometry" />
        </mxCell>
        <mxCell id="1fSh-lm8JhJzwwV4zj-t-189" value="" style="shape=tableRow;horizontal=0;startSize=0;swimlaneHead=0;swimlaneBody=0;strokeColor=inherit;top=0;left=0;bottom=0;right=0;collapsible=0;dropTarget=0;fillColor=none;points=[[0,0.5],[1,0.5]];portConstraint=eastwest;" vertex="1" parent="1fSh-lm8JhJzwwV4zj-t-188">
          <mxGeometry width="50" height="15" as="geometry" />
        </mxCell>
        <mxCell id="1fSh-lm8JhJzwwV4zj-t-190" value="9.5" style="shape=partialRectangle;html=1;whiteSpace=wrap;connectable=0;strokeColor=inherit;overflow=hidden;fillColor=none;top=0;left=0;bottom=0;right=0;pointerEvents=1;" vertex="1" parent="1fSh-lm8JhJzwwV4zj-t-189">
          <mxGeometry width="25" height="15" as="geometry">
            <mxRectangle width="25" height="15" as="alternateBounds" />
          </mxGeometry>
        </mxCell>
        <mxCell id="1fSh-lm8JhJzwwV4zj-t-191" value="12.5" style="shape=partialRectangle;html=1;whiteSpace=wrap;connectable=0;strokeColor=inherit;overflow=hidden;fillColor=none;top=0;left=0;bottom=0;right=0;pointerEvents=1;" vertex="1" parent="1fSh-lm8JhJzwwV4zj-t-189">
          <mxGeometry x="25" width="25" height="15" as="geometry">
            <mxRectangle width="25" height="15" as="alternateBounds" />
          </mxGeometry>
        </mxCell>
        <mxCell id="1fSh-lm8JhJzwwV4zj-t-192" value="" style="shape=tableRow;horizontal=0;startSize=0;swimlaneHead=0;swimlaneBody=0;strokeColor=inherit;top=0;left=0;bottom=0;right=0;collapsible=0;dropTarget=0;fillColor=none;points=[[0,0.5],[1,0.5]];portConstraint=eastwest;" vertex="1" parent="1fSh-lm8JhJzwwV4zj-t-188">
          <mxGeometry y="15" width="50" height="15" as="geometry" />
        </mxCell>
        <mxCell id="1fSh-lm8JhJzwwV4zj-t-193" value="13" style="shape=partialRectangle;html=1;whiteSpace=wrap;connectable=0;strokeColor=inherit;overflow=hidden;fillColor=none;top=0;left=0;bottom=0;right=0;pointerEvents=1;" vertex="1" parent="1fSh-lm8JhJzwwV4zj-t-192">
          <mxGeometry width="25" height="15" as="geometry">
            <mxRectangle width="25" height="15" as="alternateBounds" />
          </mxGeometry>
        </mxCell>
        <mxCell id="1fSh-lm8JhJzwwV4zj-t-194" value="16" style="shape=partialRectangle;html=1;whiteSpace=wrap;connectable=0;strokeColor=inherit;overflow=hidden;fillColor=none;top=0;left=0;bottom=0;right=0;pointerEvents=1;" vertex="1" parent="1fSh-lm8JhJzwwV4zj-t-192">
          <mxGeometry x="25" width="25" height="15" as="geometry">
            <mxRectangle width="25" height="15" as="alternateBounds" />
          </mxGeometry>
        </mxCell>
        <mxCell id="1fSh-lm8JhJzwwV4zj-t-198" value="" style="shape=table;startSize=0;container=1;collapsible=0;childLayout=tableLayout;swimlaneLine=1;strokeWidth=1;" vertex="1" parent="1">
          <mxGeometry x="1180" y="499" width="50" height="30" as="geometry" />
        </mxCell>
        <mxCell id="1fSh-lm8JhJzwwV4zj-t-199" value="" style="shape=tableRow;horizontal=0;startSize=0;swimlaneHead=0;swimlaneBody=0;strokeColor=inherit;top=0;left=0;bottom=0;right=0;collapsible=0;dropTarget=0;fillColor=none;points=[[0,0.5],[1,0.5]];portConstraint=eastwest;" vertex="1" parent="1fSh-lm8JhJzwwV4zj-t-198">
          <mxGeometry width="50" height="15" as="geometry" />
        </mxCell>
        <mxCell id="1fSh-lm8JhJzwwV4zj-t-200" value="3.5" style="shape=partialRectangle;html=1;whiteSpace=wrap;connectable=0;strokeColor=inherit;overflow=hidden;fillColor=none;top=0;left=0;bottom=0;right=0;pointerEvents=1;" vertex="1" parent="1fSh-lm8JhJzwwV4zj-t-199">
          <mxGeometry width="25" height="15" as="geometry">
            <mxRectangle width="25" height="15" as="alternateBounds" />
          </mxGeometry>
        </mxCell>
        <mxCell id="1fSh-lm8JhJzwwV4zj-t-201" value="7.5" style="shape=partialRectangle;html=1;whiteSpace=wrap;connectable=0;strokeColor=inherit;overflow=hidden;fillColor=none;top=0;left=0;bottom=0;right=0;pointerEvents=1;" vertex="1" parent="1fSh-lm8JhJzwwV4zj-t-199">
          <mxGeometry x="25" width="25" height="15" as="geometry">
            <mxRectangle width="25" height="15" as="alternateBounds" />
          </mxGeometry>
        </mxCell>
        <mxCell id="1fSh-lm8JhJzwwV4zj-t-202" value="" style="shape=tableRow;horizontal=0;startSize=0;swimlaneHead=0;swimlaneBody=0;strokeColor=inherit;top=0;left=0;bottom=0;right=0;collapsible=0;dropTarget=0;fillColor=none;points=[[0,0.5],[1,0.5]];portConstraint=eastwest;" vertex="1" parent="1fSh-lm8JhJzwwV4zj-t-198">
          <mxGeometry y="15" width="50" height="15" as="geometry" />
        </mxCell>
        <mxCell id="1fSh-lm8JhJzwwV4zj-t-203" value="12" style="shape=partialRectangle;html=1;whiteSpace=wrap;connectable=0;strokeColor=inherit;overflow=hidden;fillColor=none;top=0;left=0;bottom=0;right=0;pointerEvents=1;" vertex="1" parent="1fSh-lm8JhJzwwV4zj-t-202">
          <mxGeometry width="25" height="15" as="geometry">
            <mxRectangle width="25" height="15" as="alternateBounds" />
          </mxGeometry>
        </mxCell>
        <mxCell id="1fSh-lm8JhJzwwV4zj-t-204" value="16" style="shape=partialRectangle;html=1;whiteSpace=wrap;connectable=0;strokeColor=inherit;overflow=hidden;fillColor=none;top=0;left=0;bottom=0;right=0;pointerEvents=1;" vertex="1" parent="1fSh-lm8JhJzwwV4zj-t-202">
          <mxGeometry x="25" width="25" height="15" as="geometry">
            <mxRectangle width="25" height="15" as="alternateBounds" />
          </mxGeometry>
        </mxCell>
        <mxCell id="1fSh-lm8JhJzwwV4zj-t-205" value="" style="shape=table;startSize=0;container=1;collapsible=0;childLayout=tableLayout;swimlaneLine=1;strokeWidth=1;" vertex="1" parent="1">
          <mxGeometry x="1189" y="610" width="50" height="30" as="geometry" />
        </mxCell>
        <mxCell id="1fSh-lm8JhJzwwV4zj-t-206" value="" style="shape=tableRow;horizontal=0;startSize=0;swimlaneHead=0;swimlaneBody=0;strokeColor=inherit;top=0;left=0;bottom=0;right=0;collapsible=0;dropTarget=0;fillColor=none;points=[[0,0.5],[1,0.5]];portConstraint=eastwest;" vertex="1" parent="1fSh-lm8JhJzwwV4zj-t-205">
          <mxGeometry width="50" height="15" as="geometry" />
        </mxCell>
        <mxCell id="1fSh-lm8JhJzwwV4zj-t-207" value="3.5" style="shape=partialRectangle;html=1;whiteSpace=wrap;connectable=0;strokeColor=inherit;overflow=hidden;fillColor=none;top=0;left=0;bottom=0;right=0;pointerEvents=1;" vertex="1" parent="1fSh-lm8JhJzwwV4zj-t-206">
          <mxGeometry width="25" height="15" as="geometry">
            <mxRectangle width="25" height="15" as="alternateBounds" />
          </mxGeometry>
        </mxCell>
        <mxCell id="1fSh-lm8JhJzwwV4zj-t-208" value="7.5" style="shape=partialRectangle;html=1;whiteSpace=wrap;connectable=0;strokeColor=inherit;overflow=hidden;fillColor=none;top=0;left=0;bottom=0;right=0;pointerEvents=1;" vertex="1" parent="1fSh-lm8JhJzwwV4zj-t-206">
          <mxGeometry x="25" width="25" height="15" as="geometry">
            <mxRectangle width="25" height="15" as="alternateBounds" />
          </mxGeometry>
        </mxCell>
        <mxCell id="1fSh-lm8JhJzwwV4zj-t-209" value="" style="shape=tableRow;horizontal=0;startSize=0;swimlaneHead=0;swimlaneBody=0;strokeColor=inherit;top=0;left=0;bottom=0;right=0;collapsible=0;dropTarget=0;fillColor=none;points=[[0,0.5],[1,0.5]];portConstraint=eastwest;" vertex="1" parent="1fSh-lm8JhJzwwV4zj-t-205">
          <mxGeometry y="15" width="50" height="15" as="geometry" />
        </mxCell>
        <mxCell id="1fSh-lm8JhJzwwV4zj-t-210" value="3.5" style="shape=partialRectangle;html=1;whiteSpace=wrap;connectable=0;strokeColor=inherit;overflow=hidden;fillColor=none;top=0;left=0;bottom=0;right=0;pointerEvents=1;" vertex="1" parent="1fSh-lm8JhJzwwV4zj-t-209">
          <mxGeometry width="25" height="15" as="geometry">
            <mxRectangle width="25" height="15" as="alternateBounds" />
          </mxGeometry>
        </mxCell>
        <mxCell id="1fSh-lm8JhJzwwV4zj-t-211" value="7.5" style="shape=partialRectangle;html=1;whiteSpace=wrap;connectable=0;strokeColor=inherit;overflow=hidden;fillColor=none;top=0;left=0;bottom=0;right=0;pointerEvents=1;" vertex="1" parent="1fSh-lm8JhJzwwV4zj-t-209">
          <mxGeometry x="25" width="25" height="15" as="geometry">
            <mxRectangle width="25" height="15" as="alternateBounds" />
          </mxGeometry>
        </mxCell>
        <mxCell id="1fSh-lm8JhJzwwV4zj-t-212" value="" style="shape=table;startSize=0;container=1;collapsible=0;childLayout=tableLayout;swimlaneLine=1;strokeWidth=1;" vertex="1" parent="1">
          <mxGeometry x="1350" y="560" width="50" height="30" as="geometry" />
        </mxCell>
        <mxCell id="1fSh-lm8JhJzwwV4zj-t-213" value="" style="shape=tableRow;horizontal=0;startSize=0;swimlaneHead=0;swimlaneBody=0;strokeColor=inherit;top=0;left=0;bottom=0;right=0;collapsible=0;dropTarget=0;fillColor=none;points=[[0,0.5],[1,0.5]];portConstraint=eastwest;" vertex="1" parent="1fSh-lm8JhJzwwV4zj-t-212">
          <mxGeometry width="50" height="15" as="geometry" />
        </mxCell>
        <mxCell id="1fSh-lm8JhJzwwV4zj-t-214" value="7.5" style="shape=partialRectangle;html=1;whiteSpace=wrap;connectable=0;strokeColor=inherit;overflow=hidden;fillColor=none;top=0;left=0;bottom=0;right=0;pointerEvents=1;" vertex="1" parent="1fSh-lm8JhJzwwV4zj-t-213">
          <mxGeometry width="25" height="15" as="geometry">
            <mxRectangle width="25" height="15" as="alternateBounds" />
          </mxGeometry>
        </mxCell>
        <mxCell id="1fSh-lm8JhJzwwV4zj-t-215" value="12.5" style="shape=partialRectangle;html=1;whiteSpace=wrap;connectable=0;strokeColor=inherit;overflow=hidden;fillColor=none;top=0;left=0;bottom=0;right=0;pointerEvents=1;" vertex="1" parent="1fSh-lm8JhJzwwV4zj-t-213">
          <mxGeometry x="25" width="25" height="15" as="geometry">
            <mxRectangle width="25" height="15" as="alternateBounds" />
          </mxGeometry>
        </mxCell>
        <mxCell id="1fSh-lm8JhJzwwV4zj-t-216" value="" style="shape=tableRow;horizontal=0;startSize=0;swimlaneHead=0;swimlaneBody=0;strokeColor=inherit;top=0;left=0;bottom=0;right=0;collapsible=0;dropTarget=0;fillColor=none;points=[[0,0.5],[1,0.5]];portConstraint=eastwest;" vertex="1" parent="1fSh-lm8JhJzwwV4zj-t-212">
          <mxGeometry y="15" width="50" height="15" as="geometry" />
        </mxCell>
        <mxCell id="1fSh-lm8JhJzwwV4zj-t-217" value="7.5" style="shape=partialRectangle;html=1;whiteSpace=wrap;connectable=0;strokeColor=inherit;overflow=hidden;fillColor=none;top=0;left=0;bottom=0;right=0;pointerEvents=1;" vertex="1" parent="1fSh-lm8JhJzwwV4zj-t-216">
          <mxGeometry width="25" height="15" as="geometry">
            <mxRectangle width="25" height="15" as="alternateBounds" />
          </mxGeometry>
        </mxCell>
        <mxCell id="1fSh-lm8JhJzwwV4zj-t-218" value="12.5" style="shape=partialRectangle;html=1;whiteSpace=wrap;connectable=0;strokeColor=inherit;overflow=hidden;fillColor=none;top=0;left=0;bottom=0;right=0;pointerEvents=1;" vertex="1" parent="1fSh-lm8JhJzwwV4zj-t-216">
          <mxGeometry x="25" width="25" height="15" as="geometry">
            <mxRectangle width="25" height="15" as="alternateBounds" />
          </mxGeometry>
        </mxCell>
        <mxCell id="1fSh-lm8JhJzwwV4zj-t-225" value="" style="shape=table;startSize=0;container=1;collapsible=0;childLayout=tableLayout;swimlaneLine=1;strokeWidth=1;" vertex="1" parent="1">
          <mxGeometry x="1500" y="530" width="50" height="30" as="geometry" />
        </mxCell>
        <mxCell id="1fSh-lm8JhJzwwV4zj-t-226" value="" style="shape=tableRow;horizontal=0;startSize=0;swimlaneHead=0;swimlaneBody=0;strokeColor=inherit;top=0;left=0;bottom=0;right=0;collapsible=0;dropTarget=0;fillColor=none;points=[[0,0.5],[1,0.5]];portConstraint=eastwest;" vertex="1" parent="1fSh-lm8JhJzwwV4zj-t-225">
          <mxGeometry width="50" height="15" as="geometry" />
        </mxCell>
        <mxCell id="1fSh-lm8JhJzwwV4zj-t-227" value="12.5" style="shape=partialRectangle;html=1;whiteSpace=wrap;connectable=0;strokeColor=inherit;overflow=hidden;fillColor=none;top=0;left=0;bottom=0;right=0;pointerEvents=1;" vertex="1" parent="1fSh-lm8JhJzwwV4zj-t-226">
          <mxGeometry width="25" height="15" as="geometry">
            <mxRectangle width="25" height="15" as="alternateBounds" />
          </mxGeometry>
        </mxCell>
        <mxCell id="1fSh-lm8JhJzwwV4zj-t-228" value="13.5" style="shape=partialRectangle;html=1;whiteSpace=wrap;connectable=0;strokeColor=inherit;overflow=hidden;fillColor=none;top=0;left=0;bottom=0;right=0;pointerEvents=1;" vertex="1" parent="1fSh-lm8JhJzwwV4zj-t-226">
          <mxGeometry x="25" width="25" height="15" as="geometry">
            <mxRectangle width="25" height="15" as="alternateBounds" />
          </mxGeometry>
        </mxCell>
        <mxCell id="1fSh-lm8JhJzwwV4zj-t-229" value="" style="shape=tableRow;horizontal=0;startSize=0;swimlaneHead=0;swimlaneBody=0;strokeColor=inherit;top=0;left=0;bottom=0;right=0;collapsible=0;dropTarget=0;fillColor=none;points=[[0,0.5],[1,0.5]];portConstraint=eastwest;" vertex="1" parent="1fSh-lm8JhJzwwV4zj-t-225">
          <mxGeometry y="15" width="50" height="15" as="geometry" />
        </mxCell>
        <mxCell id="1fSh-lm8JhJzwwV4zj-t-230" value="12.5" style="shape=partialRectangle;html=1;whiteSpace=wrap;connectable=0;strokeColor=inherit;overflow=hidden;fillColor=none;top=0;left=0;bottom=0;right=0;pointerEvents=1;" vertex="1" parent="1fSh-lm8JhJzwwV4zj-t-229">
          <mxGeometry width="25" height="15" as="geometry">
            <mxRectangle width="25" height="15" as="alternateBounds" />
          </mxGeometry>
        </mxCell>
        <mxCell id="1fSh-lm8JhJzwwV4zj-t-231" value="13.5" style="shape=partialRectangle;html=1;whiteSpace=wrap;connectable=0;strokeColor=inherit;overflow=hidden;fillColor=none;top=0;left=0;bottom=0;right=0;pointerEvents=1;" vertex="1" parent="1fSh-lm8JhJzwwV4zj-t-229">
          <mxGeometry x="25" width="25" height="15" as="geometry">
            <mxRectangle width="25" height="15" as="alternateBounds" />
          </mxGeometry>
        </mxCell>
        <mxCell id="1fSh-lm8JhJzwwV4zj-t-235" value="" style="shape=table;startSize=0;container=1;collapsible=0;childLayout=tableLayout;swimlaneLine=1;strokeWidth=1;" vertex="1" parent="1">
          <mxGeometry x="1670" y="499" width="50" height="30" as="geometry" />
        </mxCell>
        <mxCell id="1fSh-lm8JhJzwwV4zj-t-236" value="" style="shape=tableRow;horizontal=0;startSize=0;swimlaneHead=0;swimlaneBody=0;strokeColor=inherit;top=0;left=0;bottom=0;right=0;collapsible=0;dropTarget=0;fillColor=none;points=[[0,0.5],[1,0.5]];portConstraint=eastwest;" vertex="1" parent="1fSh-lm8JhJzwwV4zj-t-235">
          <mxGeometry width="50" height="15" as="geometry" />
        </mxCell>
        <mxCell id="1fSh-lm8JhJzwwV4zj-t-237" value="13.5" style="shape=partialRectangle;html=1;whiteSpace=wrap;connectable=0;strokeColor=inherit;overflow=hidden;fillColor=none;top=0;left=0;bottom=0;right=0;pointerEvents=1;" vertex="1" parent="1fSh-lm8JhJzwwV4zj-t-236">
          <mxGeometry width="25" height="15" as="geometry">
            <mxRectangle width="25" height="15" as="alternateBounds" />
          </mxGeometry>
        </mxCell>
        <mxCell id="1fSh-lm8JhJzwwV4zj-t-238" value="15.5" style="shape=partialRectangle;html=1;whiteSpace=wrap;connectable=0;strokeColor=inherit;overflow=hidden;fillColor=none;top=0;left=0;bottom=0;right=0;pointerEvents=1;" vertex="1" parent="1fSh-lm8JhJzwwV4zj-t-236">
          <mxGeometry x="25" width="25" height="15" as="geometry">
            <mxRectangle width="25" height="15" as="alternateBounds" />
          </mxGeometry>
        </mxCell>
        <mxCell id="1fSh-lm8JhJzwwV4zj-t-239" value="" style="shape=tableRow;horizontal=0;startSize=0;swimlaneHead=0;swimlaneBody=0;strokeColor=inherit;top=0;left=0;bottom=0;right=0;collapsible=0;dropTarget=0;fillColor=none;points=[[0,0.5],[1,0.5]];portConstraint=eastwest;" vertex="1" parent="1fSh-lm8JhJzwwV4zj-t-235">
          <mxGeometry y="15" width="50" height="15" as="geometry" />
        </mxCell>
        <mxCell id="1fSh-lm8JhJzwwV4zj-t-240" value="13.5" style="shape=partialRectangle;html=1;whiteSpace=wrap;connectable=0;strokeColor=inherit;overflow=hidden;fillColor=none;top=0;left=0;bottom=0;right=0;pointerEvents=1;" vertex="1" parent="1fSh-lm8JhJzwwV4zj-t-239">
          <mxGeometry width="25" height="15" as="geometry">
            <mxRectangle width="25" height="15" as="alternateBounds" />
          </mxGeometry>
        </mxCell>
        <mxCell id="1fSh-lm8JhJzwwV4zj-t-241" value="15.5" style="shape=partialRectangle;html=1;whiteSpace=wrap;connectable=0;strokeColor=inherit;overflow=hidden;fillColor=none;top=0;left=0;bottom=0;right=0;pointerEvents=1;" vertex="1" parent="1fSh-lm8JhJzwwV4zj-t-239">
          <mxGeometry x="25" width="25" height="15" as="geometry">
            <mxRectangle width="25" height="15" as="alternateBounds" />
          </mxGeometry>
        </mxCell>
        <mxCell id="1fSh-lm8JhJzwwV4zj-t-242" value="" style="shape=table;startSize=0;container=1;collapsible=0;childLayout=tableLayout;swimlaneLine=1;strokeWidth=1;" vertex="1" parent="1">
          <mxGeometry x="1840" y="600" width="50" height="30" as="geometry" />
        </mxCell>
        <mxCell id="1fSh-lm8JhJzwwV4zj-t-243" value="" style="shape=tableRow;horizontal=0;startSize=0;swimlaneHead=0;swimlaneBody=0;strokeColor=inherit;top=0;left=0;bottom=0;right=0;collapsible=0;dropTarget=0;fillColor=none;points=[[0,0.5],[1,0.5]];portConstraint=eastwest;" vertex="1" parent="1fSh-lm8JhJzwwV4zj-t-242">
          <mxGeometry width="50" height="15" as="geometry" />
        </mxCell>
        <mxCell id="1fSh-lm8JhJzwwV4zj-t-244" value="15.5" style="shape=partialRectangle;html=1;whiteSpace=wrap;connectable=0;strokeColor=inherit;overflow=hidden;fillColor=none;top=0;left=0;bottom=0;right=0;pointerEvents=1;" vertex="1" parent="1fSh-lm8JhJzwwV4zj-t-243">
          <mxGeometry width="25" height="15" as="geometry">
            <mxRectangle width="25" height="15" as="alternateBounds" />
          </mxGeometry>
        </mxCell>
        <mxCell id="1fSh-lm8JhJzwwV4zj-t-245" value="16" style="shape=partialRectangle;html=1;whiteSpace=wrap;connectable=0;strokeColor=inherit;overflow=hidden;fillColor=none;top=0;left=0;bottom=0;right=0;pointerEvents=1;" vertex="1" parent="1fSh-lm8JhJzwwV4zj-t-243">
          <mxGeometry x="25" width="25" height="15" as="geometry">
            <mxRectangle width="25" height="15" as="alternateBounds" />
          </mxGeometry>
        </mxCell>
        <mxCell id="1fSh-lm8JhJzwwV4zj-t-246" value="" style="shape=tableRow;horizontal=0;startSize=0;swimlaneHead=0;swimlaneBody=0;strokeColor=inherit;top=0;left=0;bottom=0;right=0;collapsible=0;dropTarget=0;fillColor=none;points=[[0,0.5],[1,0.5]];portConstraint=eastwest;" vertex="1" parent="1fSh-lm8JhJzwwV4zj-t-242">
          <mxGeometry y="15" width="50" height="15" as="geometry" />
        </mxCell>
        <mxCell id="1fSh-lm8JhJzwwV4zj-t-247" value="15.5" style="shape=partialRectangle;html=1;whiteSpace=wrap;connectable=0;strokeColor=inherit;overflow=hidden;fillColor=none;top=0;left=0;bottom=0;right=0;pointerEvents=1;" vertex="1" parent="1fSh-lm8JhJzwwV4zj-t-246">
          <mxGeometry width="25" height="15" as="geometry">
            <mxRectangle width="25" height="15" as="alternateBounds" />
          </mxGeometry>
        </mxCell>
        <mxCell id="1fSh-lm8JhJzwwV4zj-t-248" value="16" style="shape=partialRectangle;html=1;whiteSpace=wrap;connectable=0;strokeColor=inherit;overflow=hidden;fillColor=none;top=0;left=0;bottom=0;right=0;pointerEvents=1;" vertex="1" parent="1fSh-lm8JhJzwwV4zj-t-246">
          <mxGeometry x="25" width="25" height="15" as="geometry">
            <mxRectangle width="25" height="15" as="alternateBounds" />
          </mxGeometry>
        </mxCell>
        <mxCell id="1fSh-lm8JhJzwwV4zj-t-252" value="" style="shape=table;startSize=0;container=1;collapsible=0;childLayout=tableLayout;swimlaneLine=1;strokeWidth=1;" vertex="1" parent="1">
          <mxGeometry x="2110" y="355" width="90" height="50" as="geometry" />
        </mxCell>
        <mxCell id="1fSh-lm8JhJzwwV4zj-t-253" value="" style="shape=tableRow;horizontal=0;startSize=0;swimlaneHead=0;swimlaneBody=0;strokeColor=inherit;top=0;left=0;bottom=0;right=0;collapsible=0;dropTarget=0;fillColor=none;points=[[0,0.5],[1,0.5]];portConstraint=eastwest;" vertex="1" parent="1fSh-lm8JhJzwwV4zj-t-252">
          <mxGeometry width="90" height="25" as="geometry" />
        </mxCell>
        <mxCell id="1fSh-lm8JhJzwwV4zj-t-254" value="16" style="shape=partialRectangle;html=1;whiteSpace=wrap;connectable=0;strokeColor=inherit;overflow=hidden;fillColor=none;top=0;left=0;bottom=0;right=0;pointerEvents=1;" vertex="1" parent="1fSh-lm8JhJzwwV4zj-t-253">
          <mxGeometry width="45" height="25" as="geometry">
            <mxRectangle width="45" height="25" as="alternateBounds" />
          </mxGeometry>
        </mxCell>
        <mxCell id="1fSh-lm8JhJzwwV4zj-t-255" value="16" style="shape=partialRectangle;html=1;whiteSpace=wrap;connectable=0;strokeColor=inherit;overflow=hidden;fillColor=none;top=0;left=0;bottom=0;right=0;pointerEvents=1;" vertex="1" parent="1fSh-lm8JhJzwwV4zj-t-253">
          <mxGeometry x="45" width="45" height="25" as="geometry">
            <mxRectangle width="45" height="25" as="alternateBounds" />
          </mxGeometry>
        </mxCell>
        <mxCell id="1fSh-lm8JhJzwwV4zj-t-256" value="" style="shape=tableRow;horizontal=0;startSize=0;swimlaneHead=0;swimlaneBody=0;strokeColor=inherit;top=0;left=0;bottom=0;right=0;collapsible=0;dropTarget=0;fillColor=none;points=[[0,0.5],[1,0.5]];portConstraint=eastwest;" vertex="1" parent="1fSh-lm8JhJzwwV4zj-t-252">
          <mxGeometry y="25" width="90" height="25" as="geometry" />
        </mxCell>
        <mxCell id="1fSh-lm8JhJzwwV4zj-t-257" value="16" style="shape=partialRectangle;html=1;whiteSpace=wrap;connectable=0;strokeColor=inherit;overflow=hidden;fillColor=none;top=0;left=0;bottom=0;right=0;pointerEvents=1;" vertex="1" parent="1fSh-lm8JhJzwwV4zj-t-256">
          <mxGeometry width="45" height="25" as="geometry">
            <mxRectangle width="45" height="25" as="alternateBounds" />
          </mxGeometry>
        </mxCell>
        <mxCell id="1fSh-lm8JhJzwwV4zj-t-258" value="16" style="shape=partialRectangle;html=1;whiteSpace=wrap;connectable=0;strokeColor=inherit;overflow=hidden;fillColor=none;top=0;left=0;bottom=0;right=0;pointerEvents=1;" vertex="1" parent="1fSh-lm8JhJzwwV4zj-t-256">
          <mxGeometry x="45" width="45" height="25" as="geometry">
            <mxRectangle width="45" height="25" as="alternateBounds" />
          </mxGeometry>
        </mxCell>
        <mxCell id="1fSh-lm8JhJzwwV4zj-t-259" value="H=3.5" style="text;html=1;align=center;verticalAlign=middle;resizable=0;points=[];autosize=1;strokeColor=none;fillColor=none;" vertex="1" parent="1">
          <mxGeometry x="1420" y="390" width="60" height="30" as="geometry" />
        </mxCell>
        <mxCell id="1fSh-lm8JhJzwwV4zj-t-260" value="H=3.5" style="text;html=1;align=center;verticalAlign=middle;resizable=0;points=[];autosize=1;strokeColor=none;fillColor=none;" vertex="1" parent="1">
          <mxGeometry x="1239" y="390" width="60" height="30" as="geometry" />
        </mxCell>
        <mxCell id="1fSh-lm8JhJzwwV4zj-t-261" value="H=8.5" style="text;html=1;align=center;verticalAlign=middle;resizable=0;points=[];autosize=1;strokeColor=none;fillColor=none;" vertex="1" parent="1">
          <mxGeometry x="1230" y="490" width="60" height="30" as="geometry" />
        </mxCell>
        <mxCell id="1fSh-lm8JhJzwwV4zj-t-262" value="H=9" style="text;html=1;align=center;verticalAlign=middle;resizable=0;points=[];autosize=1;strokeColor=none;fillColor=none;" vertex="1" parent="1">
          <mxGeometry x="1244" y="250" width="50" height="30" as="geometry" />
        </mxCell>
        <mxCell id="1fSh-lm8JhJzwwV4zj-t-263" value="H=9" style="text;html=1;align=center;verticalAlign=middle;resizable=0;points=[];autosize=1;strokeColor=none;fillColor=none;" vertex="1" parent="1">
          <mxGeometry x="950" y="315" width="50" height="30" as="geometry" />
        </mxCell>
        <mxCell id="1fSh-lm8JhJzwwV4zj-t-264" value="H=9" style="text;html=1;align=center;verticalAlign=middle;resizable=0;points=[];autosize=1;strokeColor=none;fillColor=none;" vertex="1" parent="1">
          <mxGeometry x="830" y="385" width="50" height="30" as="geometry" />
        </mxCell>
        <mxCell id="1fSh-lm8JhJzwwV4zj-t-265" value="H=12" style="text;html=1;align=center;verticalAlign=middle;resizable=0;points=[];autosize=1;strokeColor=none;fillColor=none;" vertex="1" parent="1">
          <mxGeometry x="930" y="425" width="50" height="30" as="geometry" />
        </mxCell>
        <mxCell id="1fSh-lm8JhJzwwV4zj-t-266" value="H=13" style="text;html=1;align=center;verticalAlign=middle;resizable=0;points=[];autosize=1;strokeColor=none;fillColor=none;" vertex="1" parent="1">
          <mxGeometry x="830" y="45" width="50" height="30" as="geometry" />
        </mxCell>
        <mxCell id="1fSh-lm8JhJzwwV4zj-t-267" value="H=13" style="text;html=1;align=center;verticalAlign=middle;resizable=0;points=[];autosize=1;strokeColor=none;fillColor=none;" vertex="1" parent="1">
          <mxGeometry x="652" y="45" width="50" height="30" as="geometry" />
        </mxCell>
        <mxCell id="1fSh-lm8JhJzwwV4zj-t-268" value="H=14" style="text;html=1;align=center;verticalAlign=middle;resizable=0;points=[];autosize=1;strokeColor=none;fillColor=none;" vertex="1" parent="1">
          <mxGeometry x="690" y="180" width="50" height="30" as="geometry" />
        </mxCell>
        <mxCell id="1fSh-lm8JhJzwwV4zj-t-269" value="H=14" style="text;html=1;align=center;verticalAlign=middle;resizable=0;points=[];autosize=1;strokeColor=none;fillColor=none;" vertex="1" parent="1">
          <mxGeometry x="579" y="400" width="50" height="30" as="geometry" />
        </mxCell>
        <mxCell id="1fSh-lm8JhJzwwV4zj-t-270" value="H=14" style="text;html=1;align=center;verticalAlign=middle;resizable=0;points=[];autosize=1;strokeColor=none;fillColor=none;" vertex="1" parent="1">
          <mxGeometry x="590" y="508.75" width="50" height="30" as="geometry" />
        </mxCell>
        <mxCell id="1fSh-lm8JhJzwwV4zj-t-271" value="H=14" style="text;html=1;align=center;verticalAlign=middle;resizable=0;points=[];autosize=1;strokeColor=none;fillColor=none;" vertex="1" parent="1">
          <mxGeometry x="600" y="618.75" width="50" height="30" as="geometry" />
        </mxCell>
        <mxCell id="1fSh-lm8JhJzwwV4zj-t-272" value="H=0" style="text;html=1;align=center;verticalAlign=middle;resizable=0;points=[];autosize=1;strokeColor=none;fillColor=none;" vertex="1" parent="1">
          <mxGeometry x="225" y="270" width="50" height="30" as="geometry" />
        </mxCell>
        <mxCell id="1fSh-lm8JhJzwwV4zj-t-273" value="H=0" style="text;html=1;align=center;verticalAlign=middle;resizable=0;points=[];autosize=1;strokeColor=none;fillColor=none;" vertex="1" parent="1">
          <mxGeometry x="382.5" y="270" width="50" height="30" as="geometry" />
        </mxCell>
        <mxCell id="1fSh-lm8JhJzwwV4zj-t-274" value="H=0" style="text;html=1;align=center;verticalAlign=middle;resizable=0;points=[];autosize=1;strokeColor=none;fillColor=none;" vertex="1" parent="1">
          <mxGeometry x="630" y="745" width="50" height="30" as="geometry" />
        </mxCell>
        <mxCell id="1fSh-lm8JhJzwwV4zj-t-275" value="H=0" style="text;html=1;align=center;verticalAlign=middle;resizable=0;points=[];autosize=1;strokeColor=none;fillColor=none;" vertex="1" parent="1">
          <mxGeometry x="760" y="710" width="50" height="30" as="geometry" />
        </mxCell>
        <mxCell id="1fSh-lm8JhJzwwV4zj-t-276" value="H=0" style="text;html=1;align=center;verticalAlign=middle;resizable=0;points=[];autosize=1;strokeColor=none;fillColor=none;" vertex="1" parent="1">
          <mxGeometry x="935" y="700" width="50" height="30" as="geometry" />
        </mxCell>
        <mxCell id="1fSh-lm8JhJzwwV4zj-t-277" value="H=0" style="text;html=1;align=center;verticalAlign=middle;resizable=0;points=[];autosize=1;strokeColor=none;fillColor=none;" vertex="1" parent="1">
          <mxGeometry x="1126.5" y="715" width="50" height="30" as="geometry" />
        </mxCell>
        <mxCell id="1fSh-lm8JhJzwwV4zj-t-278" value="H=0" style="text;html=1;align=center;verticalAlign=middle;resizable=0;points=[];autosize=1;strokeColor=none;fillColor=none;" vertex="1" parent="1">
          <mxGeometry x="1308" y="680" width="50" height="30" as="geometry" />
        </mxCell>
        <mxCell id="1fSh-lm8JhJzwwV4zj-t-279" value="H=0" style="text;html=1;align=center;verticalAlign=middle;resizable=0;points=[];autosize=1;strokeColor=none;fillColor=none;" vertex="1" parent="1">
          <mxGeometry x="1500" y="655" width="50" height="30" as="geometry" />
        </mxCell>
        <mxCell id="1fSh-lm8JhJzwwV4zj-t-280" value="H=0" style="text;html=1;align=center;verticalAlign=middle;resizable=0;points=[];autosize=1;strokeColor=none;fillColor=none;" vertex="1" parent="1">
          <mxGeometry x="1670" y="630" width="50" height="30" as="geometry" />
        </mxCell>
        <mxCell id="1fSh-lm8JhJzwwV4zj-t-281" value="H=0" style="text;html=1;align=center;verticalAlign=middle;resizable=0;points=[];autosize=1;strokeColor=none;fillColor=none;" vertex="1" parent="1">
          <mxGeometry x="1890" y="598.75" width="50" height="30" as="geometry" />
        </mxCell>
      </root>
    </mxGraphModel>
  </diagram>
</mxfile>
